<svg xmlns="http://www.w3.org/2000/svg" viewBox="0 0 500 500"><g id="freepik--background-complete--inject-123"><rect y="382.4" width="500" height="0.25" style="fill:#ebebeb"></rect><rect x="416.78" y="398.49" width="33.12" height="0.25" style="fill:#ebebeb"></rect><rect x="322.53" y="401.21" width="8.69" height="0.25" style="fill:#ebebeb"></rect><rect x="396.59" y="389.21" width="19.19" height="0.25" style="fill:#ebebeb"></rect><rect x="52.46" y="390.89" width="43.19" height="0.25" style="fill:#ebebeb"></rect><rect x="104.56" y="390.89" width="6.33" height="0.25" style="fill:#ebebeb"></rect><rect x="131.47" y="395.11" width="93.68" height="0.25" style="fill:#ebebeb"></rect><path d="M237,337.8H43.91a5.71,5.71,0,0,1-5.7-5.71V60.66A5.71,5.71,0,0,1,43.91,55H237a5.71,5.71,0,0,1,5.71,5.71V332.09A5.71,5.71,0,0,1,237,337.8ZM43.91,55.2a5.46,5.46,0,0,0-5.45,5.46V332.09a5.46,5.46,0,0,0,5.45,5.46H237a5.47,5.47,0,0,0,5.46-5.46V60.66A5.47,5.47,0,0,0,237,55.2Z" style="fill:#ebebeb"></path><path d="M453.31,337.8H260.21a5.72,5.72,0,0,1-5.71-5.71V60.66A5.72,5.72,0,0,1,260.21,55h193.1A5.71,5.71,0,0,1,459,60.66V332.09A5.71,5.71,0,0,1,453.31,337.8ZM260.21,55.2a5.47,5.47,0,0,0-5.46,5.46V332.09a5.47,5.47,0,0,0,5.46,5.46h193.1a5.47,5.47,0,0,0,5.46-5.46V60.66a5.47,5.47,0,0,0-5.46-5.46Z" style="fill:#ebebeb"></path><circle cx="342.78" cy="115.6" r="35.92" transform="translate(18.65 276.24) rotate(-45)" style="fill:#fafafa"></circle><path d="M420,351.42c-2.55-.48-6.57-6.49-18.22-10.19-10.22-1.11-27.93-8-30.43-13.46-11.38-1.49-19.07-8.73-42.23-13.47l-25,14.56-4.77,53.54H461.67S423.86,356,420,351.42Z" style="fill:#f5f5f5"></path><path d="M342.11,347.08c-6.68-7.56-28.48-15.82-28.48-15.82s-.68-4.35,15.44-17c-33.37,13.45-83,35.64-90.87,37.12-3.92,4.54-41.72,31-41.72,31H386.74s-12.6-12.93-6.24-16.14S342.34,353.26,342.11,347.08Z" style="fill:#ebebeb"></path><path d="M298.28,336c-2.29-.73-6.44-9.73-17-15.28C272.15,319,245.38,302.1,242.62,294c-2.39-3.67-20.46-9.67-27.93-13.62l-6.58,31.11-12.34,71H338.11S302.19,342.77,298.28,336Z" style="fill:#f5f5f5"></path><path d="M223.51,315.85c0-4.7-12.86-8.55-12.86-8.55s.49-1.05,4-27c-9.39,22.22-69.07,53.42-75.78,55.64-3,6.8-33.33,46.43-33.33,46.43h182s-11.55-5.08-20.67-19.52C263.46,357.37,224.35,325.11,223.51,315.85Z" style="fill:#ebebeb"></path><path d="M186,353.28c-1.75-.45-4.5-6.1-12.49-9.57-7-1-19.13-7.55-20.84-12.66-7.79-1.39-18.35-9.92-28.93-12.65l-6.84,19.5-13.54,44.5H214.56S188.66,357.55,186,353.28Z" style="fill:#f5f5f5"></path><path d="M130.56,337.9c-3,2.32-13.37,3.48-13.37,3.48s2.33-6.73,6.53-23c-8.55,13.93-56.89,33.49-62.25,34.88-2.69,4.27-28.58,29.12-28.58,29.12h88s2.88-13.62,7.24-16.64S130.72,343.71,130.56,337.9Z" style="fill:#ebebeb"></path><path d="M214.06,193.86c-.13,0-.26,0-.39.06,0-11.66-10.27-19.46-24-17.73a36.72,36.72,0,0,0-22.8,12.49,28.83,28.83,0,0,0-21,14.56,15.1,15.1,0,0,0-5-.16c-8.21,1-15.59,7.77-16.46,15a11.51,11.51,0,0,0,0,2.62l102.4-12.89a13.27,13.27,0,0,0,.62-2.69C228.22,197.89,222.27,192.83,214.06,193.86Z" style="fill:#f5f5f5"></path><path d="M321.1,127.08l-.2,0c0-6.18-5.45-10.31-12.74-9.39a19.49,19.49,0,0,0-12.09,6.62,15.25,15.25,0,0,0-11.13,7.71,8.08,8.08,0,0,0-2.66-.08c-4.35.55-8.26,4.12-8.72,8a5.89,5.89,0,0,0,0,1.39l54.26-6.83a7.06,7.06,0,0,0,.33-1.43C328.61,129.22,325.46,126.53,321.1,127.08Z" style="fill:#f0f0f0"></path><path d="M149.4,138.12a1.51,1.51,0,0,0-.28,0c0-8.34-7.34-13.91-17.17-12.67a26.26,26.26,0,0,0-16.3,8.92,20.63,20.63,0,0,0-15,10.4,10.87,10.87,0,0,0-3.58-.11c-5.87.74-11.14,5.55-11.76,10.76a8.38,8.38,0,0,0,0,1.87l73.17-9.21a9.32,9.32,0,0,0,.45-1.93C159.52,141,155.27,137.38,149.4,138.12Z" style="fill:#f5f5f5"></path><path d="M425.65,192.29h0c.32-6.4-4.73-10.88-11.87-10.6-3.74-7.58-12.67-12-23.75-10.57a39.06,39.06,0,0,0-26.48,16.11c-.41,0-.83.07-1.24.12a28.93,28.93,0,0,0-20.84,13.76l-.46.05c-8.21,1-15.58,7.77-16.46,15a10.88,10.88,0,0,0,0,2.61L431,205.42a13.52,13.52,0,0,0,.62-2.7A9.63,9.63,0,0,0,425.65,192.29Z" style="fill:#ebebeb"></path></g><g id="freepik--Shadow--inject-123"><ellipse id="freepik--path--inject-123" cx="250" cy="416.24" rx="193.89" ry="11.32" style="fill:#f5f5f5"></ellipse></g><g id="freepik--Characters--inject-123"><path d="M115.41,190.64c-20.55-1.44-17.55-18-30.4-33.11a20.41,20.41,0,0,1,10.22-6.6,36.42,36.42,0,0,0-13.56,4.28A8,8,0,0,1,80,150.86c7.58-6.63,27.34,3,34.12-9.35s32-8.23,32.88,7.81C178.61,165.8,132.29,191.82,115.41,190.64Z" style="fill:#263238"></path><path d="M211.07,354.19c-6.84-2.86-8.22-6-11.74-8.16-3-1.87-4-2-6.42-3.47-2-1.23-2.07-3.8-.35-5.57.85-.89.37-1.86,1.22-3.59l11.2,1.21c1,2.59,3,14.49,6.52,16.66C214.89,353.35,213.8,355.34,211.07,354.19Z" style="fill:#89345B"></path><path d="M162.12,235.86l-2.55,32.27c7.11,5.08,12.55,11,40.84,5.87-10.25,25.67-6.62,59.4-6.62,59.4,3.22,1.26,9.3,1.86,11.19,1.21,1.76-14,10.68-43.64,24.27-67.7a11.71,11.71,0,0,0-7.79-17.22C195.27,244.14,162.12,235.86,162.12,235.86Z" style="fill:#89345B"></path><path d="M162.12,235.86l-2.55,32.27c7.11,5.08,12.55,11,40.84,5.87-10.25,25.67-6.62,59.4-6.62,59.4,3.22,1.26,9.3,1.86,11.19,1.21,1.76-14,10.68-43.64,24.27-67.7a11.71,11.71,0,0,0-7.79-17.22C195.27,244.14,162.12,235.86,162.12,235.86Z" style="fill:#fff;opacity:0.4"></path><path d="M206.52,331.19a19.09,19.09,0,0,0-.29,3.5.85.85,0,0,1-.9.78c-4.2.1-10-1.33-11.8-1.82A.72.72,0,0,1,193,333l0-3.3a.87.87,0,0,1,1-.74l11.8,1.46A.73.73,0,0,1,206.52,331.19Z" style="fill:#263238"></path><path d="M161.59,256l-1.1.45-.93,11.72c5.53,3.94,10.05,8.38,25.05,7.77A112.92,112.92,0,0,1,161.59,256Z" style="fill:#89345B;opacity:0.4"></path><path d="M164.11,188.78l6.87,1.28c2.32.42,4.64.81,7,1.2,4.65.77,9.29,1.44,13.92,1.94l-1.34.09c1.93-.28,3.88-.52,5.83-.84s3.92-.61,5.89-1l5.94-1c2-.32,4-.68,5.95-1l.08,0a3.08,3.08,0,0,1,1.91,5.75c-1.89,1-3.75,1.9-5.67,2.75s-3.84,1.63-5.8,2.37-3.93,1.43-5.94,2.05-4,1.21-6.11,1.72a3.42,3.42,0,0,1-.83.1h-.5c-2.52,0-5.05-.09-7.55-.28s-5-.38-7.46-.69-4.95-.64-7.41-1.05-4.86-.87-7.4-1.49a6.12,6.12,0,0,1,2.53-12Z" style="fill:#ffb573"></path><path d="M151.44,185.23c7-1.62,11.94-.23,23.45,4.58,3.65,6.62-.55,16.94-.55,16.94S148.62,200.45,151.44,185.23Z" style="fill:#89345B"></path><path d="M222.14,184.93l-3-.37a3.47,3.47,0,0,0-3,1.1l-3.55,3.87a6.46,6.46,0,0,0-1.56,5.73l.27,1.28c4.87.94,10.84-1.63,10.84-1.63l1.78-.54a2.9,2.9,0,0,0,2-3.59l-1-3.54A3.33,3.33,0,0,0,222.14,184.93Z" style="fill:#ffb573"></path><path d="M345.42,216.26h0c-3-2.24-6.13-4.36-9.22-6.47s-6.23-4.16-9.35-6.21-6.24-4.06-9.36-6l-4.61-3c-1.08-.72-2.16-1.42-3.15-2.1a28.72,28.72,0,0,1-2-3c-.82-1.37-1.69-2.86-2.5-4.42s-1.63-3.17-2.41-4.82-1.59-3.3-2.35-5c-1.53-3.38-3.06-6.8-4.54-10.25l-4.43-10.29-.05-.12A9.91,9.91,0,0,0,273,162c1.43,3.85,2.94,7.42,4.56,11.08s3.33,7.23,5.2,10.79q1.38,2.68,2.87,5.36t3.17,5.34c1.12,1.78,2.29,3.58,3.66,5.4a40.79,40.79,0,0,0,5.08,5.73l.42.39a5.24,5.24,0,0,0,.93.67c1.88,1.06,3.61,2,5.35,2.84l5.17,2.49c3.42,1.64,6.89,3.14,10.34,4.66s6.95,2.92,10.46,4.31,7,2.72,10.63,3.93a5,5,0,0,0,4.54-8.7Z" style="fill:#bf715c"></path><path d="M341.16,215l11.11-.23-3.47,12.86s-10.08-1-10.4-6.45Z" style="fill:#bf715c"></path><path d="M360.65,222.73l-2,4.3a3.85,3.85,0,0,1-4.52,2.11l-5.36-1.47,3.47-12.86,6.42,2.79A3.85,3.85,0,0,1,360.65,222.73Z" style="fill:#bf715c"></path><path d="M265.56,153.19c.33,5.64-.16,11.29,2,17.13,2.07,5.5,8.59,16.77,14.84,21.43,12.48-3.08,22.59-14.37,22.5-19.89-4.64-10.52-13.79-26.71-19.78-30C279.94,139.08,269,145.69,265.56,153.19Z" style="fill:#263238"></path><g style="opacity:0.2"><path d="M280.9,141.36a12.66,12.66,0,0,0-1.75.36,37.66,37.66,0,0,0,8.37,2.82l1.14.28q-.75-.8-1.47-1.44A35.83,35.83,0,0,1,280.9,141.36Z" style="fill:#fff"></path><path d="M272.59,149.13a39.6,39.6,0,0,0,11.91,4.64,38.81,38.81,0,0,1,11.65,4.54c1.05.59,2,1.15,2.85,1.69l-1.06-1.88-1.28-.73a40.16,40.16,0,0,0-11.91-4.64,39.08,39.08,0,0,1-11.65-4.54q-1.39-.78-2.55-1.5c-.27.24-.53.5-.79.75C270.61,148,271.55,148.55,272.59,149.13Z" style="fill:#fff"></path><path d="M281.73,162a38.9,38.9,0,0,1-11.65-4.54c-1.75-1-3.2-1.88-4.45-2.74,0,.43,0,.87,0,1.3,1.13.75,2.4,1.53,3.9,2.36A39.91,39.91,0,0,0,281.49,163a39.05,39.05,0,0,1,11.64,4.53,46.33,46.33,0,0,1,10.59,7.85l.2.19c.17-.35.32-.69.45-1a47.38,47.38,0,0,0-10.72-7.93A40.29,40.29,0,0,0,281.73,162Z" style="fill:#fff"></path><path d="M278.71,171.21a39,39,0,0,1-11.65-4.54l-.58-.33c.09.46.2.92.31,1.39a39.92,39.92,0,0,0,11.68,4.51,38.46,38.46,0,0,1,11.65,4.54,45.94,45.94,0,0,1,8.4,5.83l.74-.75a46.69,46.69,0,0,0-8.63-6A40.09,40.09,0,0,0,278.71,171.21Z" style="fill:#fff"></path><path d="M287.61,185.09a39.91,39.91,0,0,0-11.92-4.65c-1.07-.25-2.16-.51-3.37-.88l.85,1.34c.79.21,1.54.39,2.28.57A38.46,38.46,0,0,1,287.1,186c1.45.81,2.7,1.57,3.8,2.3.34-.2.67-.39,1-.6C290.69,186.89,289.28,186,287.61,185.09Z" style="fill:#fff"></path></g><path d="M255.61,215.59l-28.44-.92c-3.42,22.62-1,38.9,25.46,41.45,7.69.75,27.9,1.79,36.73,4.57-7.05,25.7-9.46,60.44-9.46,60.44l11.15-1.59a647.72,647.72,0,0,1,25.13-59.87,19.8,19.8,0,0,0-10.52-27.05C280.91,222.89,255.61,215.59,255.61,215.59Z" style="fill:#bf715c"></path><path d="M260.2,215.22C275.71,218.43,292,226.6,292,226.6s-9.15,11.17-12.63,35.12c-6.61-.55-48.85-7.23-48.85-7.23-14.22-5.5-7.52-48.9-7.52-48.9Z" style="fill:#89345B"></path><path d="M250.91,236.14,240.43,256c10.33,1.62,26.18,4.05,34.42,5.15C268.87,257,258.26,248.35,250.91,236.14Z" style="opacity:0.2"></path><path d="M309,329.23s-14.64-5.34-15.6-12.79l-15,2L276.86,333h3.6l.91-1.8,1.93,1.8c19.54,0,22.82-.21,26.44-1.41A2.32,2.32,0,0,0,309,329.23Z" style="fill:#89345B"></path><rect x="116.65" y="272.66" width="95.23" height="8.74" rx="4.25" style="fill:#263238"></rect><path d="M194.61,293.18a1.64,1.64,0,0,1-.61-.11L160.13,279.7a1.65,1.65,0,1,1,1.22-3.07L195.22,290a1.65,1.65,0,0,1-.61,3.18Z" style="fill:#89345B"></path><path d="M268.48,388.92h-.09L155.2,363.28a.39.39,0,1,1,.17-.77l113.19,25.64a.4.4,0,0,1,.3.47A.39.39,0,0,1,268.48,388.92Z" style="fill:#263238"></path><path d="M157.81,349.57a.38.38,0,0,1-.39-.38.39.39,0,0,1,.38-.4L269.42,346a.39.39,0,0,1,.4.38.38.38,0,0,1-.38.4l-111.62,2.79Z" style="fill:#263238"></path><path d="M270.66,369.62a2.34,2.34,0,0,0,2.11-1.33l15.67-32.23a2.35,2.35,0,1,0-4.22-2.06l-15.68,32.24a2.36,2.36,0,0,0,2.12,3.38Z" style="fill:#263238"></path><path d="M280.67,337.38h12a2.35,2.35,0,0,0,0-4.7h-12a2.35,2.35,0,0,0,0,4.7Z" style="fill:#263238"></path><path d="M364.06,302a54,54,0,1,1-54,54,54.06,54.06,0,0,1,54-54m0-6.27A60.28,60.28,0,1,0,424.33,356a60.28,60.28,0,0,0-60.27-60.28Z" style="fill:#263238"></path><path d="M364.06,411.93a.4.4,0,0,1-.4-.39V300.38a.4.4,0,0,1,.79,0V411.54A.4.4,0,0,1,364.06,411.93Z" style="fill:#263238"></path><path d="M419.63,356.35H308.48a.39.39,0,0,1,0-.78H419.63a.39.39,0,1,1,0,.78Z" style="fill:#263238"></path><path d="M403.35,395.65a.39.39,0,0,1-.27-.11l-78.6-78.6a.4.4,0,0,1,0-.56.39.39,0,0,1,.55,0l78.6,78.6a.4.4,0,0,1,0,.56A.43.43,0,0,1,403.35,395.65Z" style="fill:#263238"></path><path d="M324.76,395.65a.43.43,0,0,1-.28-.11.4.4,0,0,1,0-.56l78.6-78.6a.39.39,0,0,1,.55,0,.4.4,0,0,1,0,.56L325,395.54A.39.39,0,0,1,324.76,395.65Z" style="fill:#263238"></path><path d="M342.79,407.7l-.15,0a.4.4,0,0,1-.22-.51L385,304.46a.39.39,0,0,1,.51-.21.39.39,0,0,1,.22.51L343.15,407.45A.38.38,0,0,1,342.79,407.7Z" style="fill:#263238"></path><path d="M415.4,377.62a.4.4,0,0,1-.15,0L312.56,335.05a.38.38,0,0,1-.21-.51.39.39,0,0,1,.51-.21l102.69,42.54a.38.38,0,0,1,.21.51A.39.39,0,0,1,415.4,377.62Z" style="fill:#263238"></path><path d="M385.32,407.7a.38.38,0,0,1-.36-.25L342.42,304.76a.39.39,0,0,1,.22-.51.39.39,0,0,1,.51.21l42.54,102.7a.4.4,0,0,1-.22.51Z" style="fill:#263238"></path><path d="M312.71,377.62a.39.39,0,0,1-.36-.24.38.38,0,0,1,.21-.51l102.69-42.54a.39.39,0,0,1,.51.21.38.38,0,0,1-.21.51L312.86,377.59A.4.4,0,0,1,312.71,377.62Z" style="fill:#263238"></path><path d="M156.34,302a54,54,0,1,1-54,54,54.07,54.07,0,0,1,54-54m0-6.27A60.28,60.28,0,1,0,216.62,356a60.28,60.28,0,0,0-60.28-60.28Z" style="fill:#263238"></path><path d="M156.34,340.28A15.68,15.68,0,1,1,140.66,356a15.7,15.7,0,0,1,15.68-15.68m0-1.83A17.51,17.51,0,1,0,173.85,356a17.51,17.51,0,0,0-17.51-17.51Z" style="fill:#263238"></path><path d="M156.34,365.25a9.29,9.29,0,1,1,9.29-9.29A9.3,9.3,0,0,1,156.34,365.25Zm0-13.88a4.59,4.59,0,1,0,4.59,4.59A4.59,4.59,0,0,0,156.34,351.37Z" style="fill:#89345B"></path><path d="M270.66,347.37a19.9,19.9,0,1,1-19.9,19.9,19.92,19.92,0,0,1,19.9-19.9m0-2.31a22.21,22.21,0,1,0,22.21,22.21,22.21,22.21,0,0,0-22.21-22.21Z" style="fill:#263238"></path><path d="M156.34,411.93a.4.4,0,0,1-.39-.39V300.38a.4.4,0,0,1,.39-.39.39.39,0,0,1,.39.39V411.54A.39.39,0,0,1,156.34,411.93Z" style="fill:#263238"></path><path d="M211.92,356.35H100.77a.39.39,0,1,1,0-.78H211.92a.39.39,0,0,1,0,.78Z" style="fill:#263238"></path><path d="M195.64,395.65a.43.43,0,0,1-.28-.11l-78.59-78.6a.39.39,0,0,1,0-.56.39.39,0,0,1,.55,0l78.6,78.6a.4.4,0,0,1,0,.56A.43.43,0,0,1,195.64,395.65Z" style="fill:#263238"></path><path d="M117,395.65a.39.39,0,0,1-.27-.67l78.59-78.6a.4.4,0,1,1,.56.56l-78.6,78.6A.43.43,0,0,1,117,395.65Z" style="fill:#263238"></path><path d="M135.07,407.7l-.15,0a.4.4,0,0,1-.21-.51l42.54-102.7a.39.39,0,0,1,.51-.21.38.38,0,0,1,.21.51L135.44,407.45A.4.4,0,0,1,135.07,407.7Z" style="fill:#263238"></path><path d="M207.69,377.62a.4.4,0,0,1-.15,0L104.85,335.05a.39.39,0,0,1-.22-.51.4.4,0,0,1,.52-.21l102.69,42.54a.39.39,0,0,1-.15.75Z" style="fill:#263238"></path><path d="M177.61,407.7a.38.38,0,0,1-.36-.25L134.71,304.76a.39.39,0,0,1,.21-.51.4.4,0,0,1,.52.21L178,407.16a.39.39,0,0,1-.21.51Z" style="fill:#263238"></path><path d="M105,377.62a.4.4,0,0,1-.37-.24.39.39,0,0,1,.22-.51l102.69-42.54a.39.39,0,0,1,.3.72L105.15,377.59A.4.4,0,0,1,105,377.62Z" style="fill:#263238"></path><path d="M156.34,357.53a1.48,1.48,0,0,1-.8-.23,1.56,1.56,0,0,1-.54-2.15l50.68-84.36a1.57,1.57,0,1,1,2.69,1.61l-50.68,84.37A1.58,1.58,0,0,1,156.34,357.53Z" style="fill:#89345B"></path><path d="M364.05,359.1a3.15,3.15,0,0,1-3.05-2.42L335.39,247.44a3.23,3.23,0,0,1,0-1.35l3.7-17.84a3.13,3.13,0,0,1,6.14,1.27l-3.56,17.17,25.46,108.55a3.14,3.14,0,0,1-2.34,3.77A3,3,0,0,1,364.05,359.1Z" style="fill:#89345B"></path><path d="M270.66,370.4h-.31L156,359.08a3.14,3.14,0,0,1,.62-6.24L271,364.15a3.13,3.13,0,0,1-.31,6.25Z" style="fill:#89345B"></path><path d="M270.66,370.4h-.14a3.1,3.1,0,0,1-2.47-1.4l-76-114.19a3.14,3.14,0,1,1,5.22-3.48L270.88,362l70.83-89a3.14,3.14,0,0,1,4.91,3.9l-73.51,92.4A3.13,3.13,0,0,1,270.66,370.4Z" style="fill:#89345B"></path><path d="M270.6,301.08c-1.38,0-2.77,0-4.15-.09a92.67,92.67,0,0,1-61.65-27.18,3.14,3.14,0,0,1,4.44-4.43,86.17,86.17,0,0,0,117,5.19l14.45-12.12a3.14,3.14,0,0,1,4,4.81l-14.46,12.11A92.66,92.66,0,0,1,270.6,301.08Z" style="fill:#89345B"></path><path d="M380.66,252.52c-.85-4.18,8-9.33,14.43-9.37C388.62,247,386.33,253.34,380.66,252.52Z" style="fill:#89345B"></path><path d="M374.75,252.79c2.76-2.15,0-10.11-4-13.57C372.73,245.11,370.78,250.27,374.75,252.79Z" style="fill:#89345B"></path><path d="M358.19,251c2.24-2.77-4.66-6.6-10.89-6.89C352.29,246.94,352.39,251.27,358.19,251Z" style="fill:#89345B"></path><path d="M376.25,250l-.87-.32c3.57-9.51,13.5-21.35,20.44-24.37l.37.86C389.56,229.09,379.69,240.89,376.25,250Z" style="fill:#89345B"></path><path d="M392,222.69a4.18,4.18,0,0,1,1.37-3.56c2-2.19,2.49.72,2.58,3.3.4-2.24,1.53-4.44,4.22-3.22,1.88.86.83,2.49-.64,3.88,1.38-.43,2.69,0,2.95,2.88.26,3-2.07,2.34-3.92,1.34,1.31,1.37,2.12,3.49-.41,5.82-2.06,1.89-2.38-.83-2.29-3.37-.57,2.11-1.83,4-4.3,2.55-2.16-1.25-.09-3.22,1.85-4.57-1.8.62-3.75.36-3.51-3.33C390,222.44,391,222.22,392,222.69Z" style="fill:#89345B"></path><path d="M392,222.69a4.18,4.18,0,0,1,1.37-3.56c2-2.19,2.49.72,2.58,3.3.4-2.24,1.53-4.44,4.22-3.22,1.88.86.83,2.49-.64,3.88,1.38-.43,2.69,0,2.95,2.88.26,3-2.07,2.34-3.92,1.34,1.31,1.37,2.12,3.49-.41,5.82-2.06,1.89-2.38-.83-2.29-3.37-.57,2.11-1.83,4-4.3,2.55-2.16-1.25-.09-3.22,1.85-4.57-1.8.62-3.75.36-3.51-3.33C390,222.44,391,222.22,392,222.69Z" style="opacity:0.2"></path><path d="M395.18,225.11a1.65,1.65,0,0,0,.1,2,1.09,1.09,0,0,0,1.67-.37,1.65,1.65,0,0,0-.1-2A1.09,1.09,0,0,0,395.18,225.11Z" style="fill:#89345B"></path><path d="M395.18,225.11a1.65,1.65,0,0,0,.1,2,1.09,1.09,0,0,0,1.67-.37,1.65,1.65,0,0,0-.1-2A1.09,1.09,0,0,0,395.18,225.11Z" style="fill:#fff;opacity:0.7000000000000001"></path><path d="M374,256.88l-.86-.34c3.29-8.52,8.47-27.44,6.13-34.63l.88-.29C382.55,229,377.32,248.25,374,256.88Z" style="fill:#89345B"></path><path d="M385.22,223.55a3.74,3.74,0,0,0,2.19-3.14c.56-2.92-2.37-1.77-4.72-.44,1.71-1.57,2.86-3.76-.09-5.43-2.06-1.17-2.78.63-3,2.68-.59-1.44-1.91-2.32-4.6-1-2.88,1.42-.64,3.07,1.53,4.14-2.11-.39-4.57.06-4.86,3.54-.25,2.82,2.39,1.61,4.58.14-1.47,1.65-2.25,3.77.73,5.14,2.62,1.2,2.92-1.69,2.76-4.11.71,1.9,2.3,3.46,5.4,1.23C386.81,225.12,386.37,224.22,385.22,223.55Z" style="fill:#89345B"></path><path d="M385.22,223.55a3.74,3.74,0,0,0,2.19-3.14c.56-2.92-2.37-1.77-4.72-.44,1.71-1.57,2.86-3.76-.09-5.43-2.06-1.17-2.78.63-3,2.68-.59-1.44-1.91-2.32-4.6-1-2.88,1.42-.64,3.07,1.53,4.14-2.11-.39-4.57.06-4.86,3.54-.25,2.82,2.39,1.61,4.58.14-1.47,1.65-2.25,3.77.73,5.14,2.62,1.2,2.92-1.69,2.76-4.11.71,1.9,2.3,3.46,5.4,1.23C386.81,225.12,386.37,224.22,385.22,223.55Z" style="fill:#fff;opacity:0.7000000000000001"></path><path d="M380.86,222.12a1.69,1.69,0,0,1-1.87,1,1.19,1.19,0,0,1-.83-1.66,1.66,1.66,0,0,1,1.86-1A1.2,1.2,0,0,1,380.86,222.12Z" style="fill:#89345B"></path><path d="M380.86,222.12a1.69,1.69,0,0,1-1.87,1,1.19,1.19,0,0,1-.83-1.66,1.66,1.66,0,0,1,1.86-1A1.2,1.2,0,0,1,380.86,222.12Z" style="opacity:0.2"></path><path d="M360.61,259c-1.79-4.93-1.5-17.54.93-14.39s-3.49,9.69.24,14.16C361.15,260.08,360.61,259,360.61,259Z" style="fill:#89345B"></path><path d="M365.61,255.61c.89-4.12,6.51-12.58,6.81-9.4s-6.54,5.1-5.92,9.75C365.49,256.61,365.61,255.61,365.61,255.61Z" style="fill:#89345B"></path><path d="M366.22,254.24c1.49-2.08,6.65-5.45,6.06-3.6s-4.88,1.27-5.65,4C365.91,254.77,366.22,254.24,366.22,254.24Z" style="fill:#89345B"></path><path d="M366.22,254.24c1.49-2.08,6.65-5.45,6.06-3.6s-4.88,1.27-5.65,4C365.91,254.77,366.22,254.24,366.22,254.24Z" style="fill:#fff;opacity:0.30000000000000004"></path><path d="M376,256.73c.71-4.16,5.94-12.88,6.38-9.71s-6.3,5.4-5.47,10C375.89,257.73,376,256.73,376,256.73Z" style="fill:#89345B"></path><path d="M362,262.94c3.65-12.55,1.95-19.52,1.95-19.52C366.22,246.37,364.9,257.3,362,262.94Z" style="fill:#89345B"></path><path d="M364.06,246.73c-1.53.17-2.5-2.23-2.78-5.35a9.86,9.86,0,0,0,1.4.94s.08-1.53.19-2.21a23,23,0,0,0,1.64,1.67,5.55,5.55,0,0,0,.33-1.54C366.24,241.65,367.6,245.83,364.06,246.73Z" style="fill:#89345B"></path><path d="M364.06,246.73c-1.53.17-2.5-2.23-2.78-5.35a9.86,9.86,0,0,0,1.4.94s.08-1.53.19-2.21a23,23,0,0,0,1.64,1.67,5.55,5.55,0,0,0,.33-1.54C366.24,241.65,367.6,245.83,364.06,246.73Z" style="fill:#fff;opacity:0.30000000000000004"></path><path d="M360.44,257.35c-3-14.81-.33-22.69-.33-22.69C357.2,237.84,357.66,250.56,360.44,257.35Z" style="fill:#89345B"></path><path d="M359.69,238.36c1.78,0,2.61-2.86,2.56-6.48a11.83,11.83,0,0,1-1.5,1.25s-.27-1.75-.48-2.52c-.43.46-1.06,1.54-1.69,2.12A6.68,6.68,0,0,1,358,231C356.58,232.78,355.51,237.75,359.69,238.36Z" style="fill:#89345B"></path><path d="M359.69,238.36c1.78,0,2.61-2.86,2.56-6.48a11.83,11.83,0,0,1-1.5,1.25s-.27-1.75-.48-2.52c-.43.46-1.06,1.54-1.69,2.12A6.68,6.68,0,0,1,358,231C356.58,232.78,355.51,237.75,359.69,238.36Z" style="opacity:0.30000000000000004"></path><path d="M357.86,255.85c-1.89-3.68-9.35-10.27-8.84-7.18s7.49,3.18,8.08,7.74C358.22,256.77,357.86,255.85,357.86,255.85Z" style="fill:#89345B"></path><path d="M357.86,255.85c-1.89-3.68-9.35-10.27-8.84-7.18s7.49,3.18,8.08,7.74C358.22,256.77,357.86,255.85,357.86,255.85Z" style="opacity:0.30000000000000004"></path><path d="M376.33,255c1.6-2.54,7.4-6.83,6.83-4.63s-5.6,1.82-6.31,5.08C376,255.6,376.33,255,376.33,255Z" style="fill:#89345B"></path><path d="M373.45,256c2.69-3.77,5.43-14.59,2.62-12.49s.67,9.09-3.57,12C372.72,256.83,373.45,256,373.45,256Z" style="fill:#89345B"></path><path d="M359,261.8c-2.16-12.89-6.73-18.43-6.73-18.43C355.62,245,359.18,255.46,359,261.8Z" style="fill:#89345B"></path><path d="M353.83,246.3c-1.3.82-3.22-.92-4.83-3.61a10,10,0,0,0,1.67.24s-.59-1.41-.78-2.07c.52.14,1.48.65,2.2.79a5.45,5.45,0,0,0-.37-1.54C353.59,240.78,356.63,244,353.83,246.3Z" style="fill:#89345B"></path><path d="M353.83,246.3c-1.3.82-3.22-.92-4.83-3.61a10,10,0,0,0,1.67.24s-.59-1.41-.78-2.07c.52.14,1.48.65,2.2.79a5.45,5.45,0,0,0-.37-1.54C353.59,240.78,356.63,244,353.83,246.3Z" style="fill:#fff;opacity:0.30000000000000004"></path><path d="M362.05,258.5c-6.56-13.61-5.95-21.9-5.95-21.9C354.08,240.4,357.67,252.61,362.05,258.5Z" style="fill:#89345B"></path><path d="M356.62,240.29c1.73-.43,1.82-3.42.87-6.92a11.42,11.42,0,0,1-1.14,1.58s-.7-1.62-1.1-2.31a25.7,25.7,0,0,1-1.11,2.46,6.12,6.12,0,0,1-1-1.54C352.22,235.66,352.42,240.73,356.62,240.29Z" style="fill:#89345B"></path><path d="M356.62,240.29c1.73-.43,1.82-3.42.87-6.92a11.42,11.42,0,0,1-1.14,1.58s-.7-1.62-1.1-2.31a25.7,25.7,0,0,1-1.11,2.46,6.12,6.12,0,0,1-1-1.54C352.22,235.66,352.42,240.73,356.62,240.29Z" style="opacity:0.30000000000000004"></path><path d="M363.79,258.19c5.37-11.91,4.65-19.06,4.65-19.06C370.28,242.37,367.45,253,363.79,258.19Z" style="fill:#89345B"></path><path d="M368.09,242.43c-1.54-.05-2.17-2.56-2-5.69a11.61,11.61,0,0,0,1.25,1.13s.3-1.5.5-2.16c.36.4.87,1.36,1.4,1.88a5.79,5.79,0,0,0,.54-1.48C371,237.7,371.72,242,368.09,242.43Z" style="fill:#89345B"></path><path d="M368.09,242.43c-1.54-.05-2.17-2.56-2-5.69a11.61,11.61,0,0,0,1.25,1.13s.3-1.5.5-2.16c.36.4.87,1.36,1.4,1.88a5.79,5.79,0,0,0,.54-1.48C371,237.7,371.72,242,368.09,242.43Z" style="opacity:0.30000000000000004"></path><path d="M372.17,256c3-14.81.33-22.68.33-22.68C375.41,236.46,375,249.18,372.17,256Z" style="fill:#89345B"></path><path d="M372.92,237c-1.78,0-2.61-2.86-2.56-6.48a11.22,11.22,0,0,0,1.5,1.24s.27-1.74.48-2.51c.43.45,1.06,1.54,1.69,2.11a6.59,6.59,0,0,0,.57-1.73C376,231.4,377.1,236.37,372.92,237Z" style="fill:#89345B"></path><path d="M372.92,237c-1.78,0-2.61-2.86-2.56-6.48a11.22,11.22,0,0,0,1.5,1.24s.27-1.74.48-2.51c.43.45,1.06,1.54,1.69,2.11a6.59,6.59,0,0,0,.57-1.73C376,231.4,377.1,236.37,372.92,237Z" style="fill:#fff;opacity:0.30000000000000004"></path><path d="M375.69,261c2.16-12.89,6.72-18.43,6.72-18.43C379.08,244.27,375.53,254.69,375.69,261Z" style="fill:#89345B"></path><path d="M380.87,245.53c1.31.82,3.22-.92,4.83-3.61a9.91,9.91,0,0,1-1.67.24s.59-1.41.78-2.07c-.51.14-1.47.65-2.2.79a5.82,5.82,0,0,1,.37-1.54C381.11,240,378.07,243.19,380.87,245.53Z" style="fill:#89345B"></path><path d="M380.87,245.53c1.31.82,3.22-.92,4.83-3.61a9.91,9.91,0,0,1-1.67.24s.59-1.41.78-2.07c-.51.14-1.47.65-2.2.79a5.82,5.82,0,0,1,.37-1.54C381.11,240,378.07,243.19,380.87,245.53Z" style="fill:#fff;opacity:0.30000000000000004"></path><path d="M372.65,257.73c6.56-13.61,6-21.9,6-21.9C380.63,239.63,377,251.84,372.65,257.73Z" style="fill:#89345B"></path><path d="M378.09,239.52c-1.73-.43-1.82-3.42-.88-6.92a12.49,12.49,0,0,0,1.14,1.58s.7-1.62,1.1-2.31c.3.54.64,1.75,1.11,2.46a6.12,6.12,0,0,0,1-1.54C382.49,234.89,382.29,240,378.09,239.52Z" style="fill:#89345B"></path><path d="M378.09,239.52c-1.73-.43-1.82-3.42-.88-6.92a12.49,12.49,0,0,0,1.14,1.58s.7-1.62,1.1-2.31c.3.54.64,1.75,1.11,2.46a6.12,6.12,0,0,0,1-1.54C382.49,234.89,382.29,240,378.09,239.52Z" style="opacity:0.30000000000000004"></path><path d="M387.31,268.61c-1.05,7.08-9.41,13.41-20,14.5-13.32,1.38-23.71-5.49-22.43-14.07l2.8-18.82c0-.29.43-.53.87-.53h41.54Z" style="fill:#263238"></path><path d="M348.47,264.37c-4.27-.3-10-2.73-10-2.73a20.49,20.49,0,0,0-2.5,4.42,36.66,36.66,0,0,0,12.24,3.32Z" style="fill:#263238"></path><path d="M357.29,235.16a3.35,3.35,0,0,1-.88-.13l-13.13-3.83a3.14,3.14,0,0,1,1.76-6L358.17,229a3.14,3.14,0,0,1-.88,6.15Z" style="fill:#263238"></path><path d="M187.22,257.41,221.17,262a2.68,2.68,0,0,0,3-2.3l.35-2.59a2.68,2.68,0,0,0-2.12-3l-33.63-6.9a2.69,2.69,0,0,0-3.2,2.26l-.66,4.88A2.68,2.68,0,0,0,187.22,257.41Z" style="fill:#263238;fill-rule:evenodd"></path><path d="M270.66,361.6a5.67,5.67,0,1,0,5.66,5.67,5.67,5.67,0,0,0-5.66-5.67m0-4.7a10.37,10.37,0,1,1-10.37,10.37,10.36,10.36,0,0,1,10.37-10.37Z" style="fill:#263238"></path><path d="M255,401.85a2.35,2.35,0,0,0,2.12-1.32l15.67-32.24a2.35,2.35,0,1,0-4.23-2.05l-15.67,32.23a2.36,2.36,0,0,0,1.09,3.15A2.33,2.33,0,0,0,255,401.85Z" style="fill:#263238"></path><path d="M248.63,401.85h12a2.35,2.35,0,0,0,0-4.7h-12a2.35,2.35,0,1,0,0,4.7Z" style="fill:#263238"></path><path d="M243,216.87l-30.64-2.93c-12.33,19.26-9.48,38,8.79,55.43,9,8.61,20.05,17.7,32.24,29.1,2.58,2.41,4.32,6.22,2.92,9.47-10,23.13-6.85,80.77-6.85,80.77l10.88-2.95s9.14-42.21,24.62-82c2.25-5.79,1.76-12.54-3.89-20.44C262,256.68,243,216.87,243,216.87Z" style="fill:#ce7a63"></path><path d="M210.1,212.28c-3.12,6-11.3,22.09-5.28,37.65s27.81,32.64,31.71,36.12c12.11-11.1,34.5-20,34.5-20S255,238.43,253.32,223C238.27,217.24,210.1,212.28,210.1,212.28Z" style="fill:#89345B"></path><path d="M278.42,393.91s-14.64-5.34-15.6-12.79l-15,2-1.52,14.49h3.6l.91-1.8,1.93,1.8c19.54,0,22.82-.21,26.44-1.41A2.3,2.3,0,0,0,278.42,393.91Z" style="fill:#89345B"></path><path d="M247.62,131a186.33,186.33,0,0,1,34.66,9.44,18.15,18.15,0,0,1,10.63,22.3c-5.46,17.38-14.31,25.7-21,55.84-11,16-67.09-3.93-67.09-3.93-.68-6.93,11.18-24,14.89-35.78,4.09-13.79,6-21.77,6.93-31.62A18.14,18.14,0,0,1,247.62,131Z" style="fill:#263238"></path><g style="opacity:0.2"><path d="M244.67,131.89a47.12,47.12,0,0,0,12.67,4.47,40.29,40.29,0,0,0,12.76.93c.9-.06,1.8-.12,2.75-.14l-2.94-.91a39,39,0,0,1-12.35-.91,46,46,0,0,1-12.42-4.39l-.3-.14a17.82,17.82,0,0,0-2.2.1C243.34,131.23,244,131.56,244.67,131.89Z" style="fill:#fff"></path><path d="M232.07,137.21a45.72,45.72,0,0,1,12.43,4.39,47.09,47.09,0,0,0,12.68,4.47,39.92,39.92,0,0,0,12.75.93,38.61,38.61,0,0,1,12.47.91,45.29,45.29,0,0,1,10.28,3.34c-.17-.48-.36-.95-.58-1.42a46.91,46.91,0,0,0-9.48-3,40.26,40.26,0,0,0-12.76-.93,38.32,38.32,0,0,1-12.46-.9A46.07,46.07,0,0,1,245,140.65a47.09,47.09,0,0,0-12.68-4.47l-.38-.08c-.3.29-.59.59-.86.9Z" style="fill:#fff"></path><path d="M269.7,155.66a39.22,39.22,0,0,1-12.47-.91,46.07,46.07,0,0,1-12.43-4.39,47.12,47.12,0,0,0-12.67-4.47A51.62,51.62,0,0,0,227,145c-.07.34-.13.68-.19,1,1.45.16,3.1.43,5.09.85a45.63,45.63,0,0,1,12.42,4.39A47.22,47.22,0,0,0,257,155.78a40,40,0,0,0,12.76.93,38.63,38.63,0,0,1,12.47.91,44.6,44.6,0,0,1,11.05,3.71c.08-.36.14-.72.2-1.08a46.24,46.24,0,0,0-11-3.67A39.84,39.84,0,0,0,269.7,155.66Z" style="fill:#fff"></path><path d="M269.53,165.37a39.22,39.22,0,0,1-12.47-.91,46,46,0,0,1-12.42-4.39A47.22,47.22,0,0,0,232,155.6a49.59,49.59,0,0,0-6.26-1l-.18,1a49.12,49.12,0,0,1,6.22.95A45.72,45.72,0,0,1,244.17,161a47.12,47.12,0,0,0,12.67,4.47,40,40,0,0,0,12.76.93,38.63,38.63,0,0,1,12.47.91,46.51,46.51,0,0,1,8.28,2.47c.14-.33.27-.65.4-1a49.18,49.18,0,0,0-8.46-2.53A39.91,39.91,0,0,0,269.53,165.37Z" style="fill:#fff"></path><path d="M244,170.73a47.09,47.09,0,0,0,12.68,4.47,40.22,40.22,0,0,0,12.75.93,38.44,38.44,0,0,1,12.47.91c1.78.37,3.3.77,4.64,1.18l.47-1c-1.41-.44-3-.86-4.89-1.26a39.88,39.88,0,0,0-12.76-.92,39.16,39.16,0,0,1-12.46-.91,46.07,46.07,0,0,1-12.43-4.39,47.09,47.09,0,0,0-12.68-4.47,45.33,45.33,0,0,0-8-1.07c-.09.35-.17.69-.26,1a41.84,41.84,0,0,1,8.09,1.05A45.72,45.72,0,0,1,244,170.73Z" style="fill:#fff"></path><path d="M282,185.71a39.91,39.91,0,0,0-12.76-.92,38.73,38.73,0,0,1-12.47-.91,46.07,46.07,0,0,1-12.43-4.39A47.12,47.12,0,0,0,231.63,175,40.46,40.46,0,0,0,221.14,174c-.1.35-.2.72-.31,1.07a39.6,39.6,0,0,1,10.58,1,45.85,45.85,0,0,1,12.43,4.39,47,47,0,0,0,12.67,4.47,40.26,40.26,0,0,0,12.76.93,38.92,38.92,0,0,1,12.47.91l.67.15.45-1Z" style="fill:#fff"></path><path d="M218.77,184.85a39.2,39.2,0,0,1,12.47.91,45.72,45.72,0,0,1,12.43,4.39,47.09,47.09,0,0,0,12.68,4.47,39.92,39.92,0,0,0,12.75.93,37.34,37.34,0,0,1,9.5.35l.39-1a37.76,37.76,0,0,0-10-.4,39.22,39.22,0,0,1-12.47-.91,46.11,46.11,0,0,1-12.42-4.39,47.22,47.22,0,0,0-12.68-4.47,40,40,0,0,0-12.76-.93l-.87.06c-.16.35-.31.71-.47,1.08Z" style="fill:#fff"></path><path d="M218.6,194.56a39.2,39.2,0,0,1,12.47.91,45.72,45.72,0,0,1,12.43,4.39,47.09,47.09,0,0,0,12.68,4.47,40,40,0,0,0,12.76.93,39.1,39.1,0,0,1,6.46,0c.11-.34.21-.69.32-1a38.84,38.84,0,0,0-6.86,0,39.16,39.16,0,0,1-12.46-.91A46.07,46.07,0,0,1,244,198.91a47.09,47.09,0,0,0-12.68-4.47,40,40,0,0,0-12.76-.93,41.82,41.82,0,0,1-5.37.1c-.17.34-.35.68-.52,1A40.91,40.91,0,0,0,218.6,194.56Z" style="fill:#fff"></path><path d="M268.7,213.92a39.2,39.2,0,0,1-12.47-.91,46.07,46.07,0,0,1-12.43-4.39,47.12,47.12,0,0,0-12.67-4.47,40,40,0,0,0-12.76-.93,37.34,37.34,0,0,1-9.83-.41l-.47,1a38.55,38.55,0,0,0,10.37.47,39.22,39.22,0,0,1,12.47.91,45.85,45.85,0,0,1,12.43,4.39A47,47,0,0,0,256,214a40.26,40.26,0,0,0,12.76.93c1.29-.09,2.56-.17,4-.15.09-.35.17-.71.26-1C271.42,213.74,270.05,213.83,268.7,213.92Z" style="fill:#fff"></path><path d="M256.06,222.72a46.11,46.11,0,0,1-12.42-4.39A47.22,47.22,0,0,0,231,213.86a40,40,0,0,0-12.76-.93,39.22,39.22,0,0,1-12.47-.91l-.67-.15c-.08.36-.14.71-.18,1l.63.14a40,40,0,0,0,12.76.93,38.75,38.75,0,0,1,12.47.91,45.72,45.72,0,0,1,12.43,4.39,47.09,47.09,0,0,0,12.68,4.47c1.45.31,2.74.53,3.91.7a31.83,31.83,0,0,0,3.74-.7A44.28,44.28,0,0,1,256.06,222.72Z" style="fill:#fff"></path></g><path d="M257.66,111.39c-.51,8.2.09,17.76-3.62,23,3,4.65,5.78,8.45,14.3,10.47s8.22-2.68,6.69-6.21c-5.31-4.61-4.57-9.21-2.39-11.56Z" style="fill:#ce7a63"></path><path d="M261.11,110.66l11.53,16.41a6.28,6.28,0,0,0-1.53,5.46,12.38,12.38,0,0,1-7.66-4.84c-3-4-3.46-8-3.21-13.52C260.55,113.07,260.83,111.91,261.11,110.66Z" style="opacity:0.2"></path><path d="M257,104.32c-.73,10-.47,14.39,3.84,20.08,6.48,8.58,18.12,6.95,21.81-2.6,3.33-8.6,4-23.42-5.19-28.58A13.74,13.74,0,0,0,257,104.32Z" style="fill:#ce7a63"></path><path d="M283.47,116.87h-.18a3.25,3.25,0,0,1-2.27-1.2,6.74,6.74,0,0,1-1.35-4.91c.28-3.22,2.36-5.72,4.61-5.6a3.28,3.28,0,0,1,2.27,1.21,6.71,6.71,0,0,1,1.34,4.9h0C287.63,114.4,285.66,116.87,283.47,116.87Zm.63-11.39c-2,0-3.85,2.33-4.1,5.3a6.4,6.4,0,0,0,1.27,4.66,2.88,2.88,0,0,0,2,1.09c2.1.14,4-2.25,4.26-5.3a6.43,6.43,0,0,0-1.27-4.66,3,3,0,0,0-2-1.09Zm3.63,5.77Z" style="fill:#fff"></path><path d="M283.92,87c2,2.57,1.79,3.49,1.79,3.49a25.77,25.77,0,0,0-14.5-5.14c-4.73-3.72-8.63-2.66-8.63-2.66s3.16,1.46,3.83,2.7c-4.45-.12-13.85-.41-13.34,3.55a12.49,12.49,0,0,0-6.36-.3,27.06,27.06,0,0,1,4.75,1.61c-5.31,1.64-4.18,9.55-2.73,13,1.61,3.85-3.58,2.38-3.58,2.38s1.63,2.72,4.12,2.3c1.09,1.6,3.11,5.91,9.14,6.51,4.68-1,6.08-10.14,3.17-11.84,5.18,1.94,12.05-1.82,16.95-6.16a24.38,24.38,0,0,1,5.48,5.78s4.86-2.08,3.9-5.66C291.67,97.38,288.64,88.23,283.92,87Z" style="fill:#263238"></path><path d="M270.59,109.28h0c-.12,0-11.65-1-14.44-.73a.15.15,0,0,1-.18-.14.17.17,0,0,1,.14-.19c2.84-.33,14,.69,14.5.73a.16.16,0,0,1,.15.18A.16.16,0,0,1,270.59,109.28Z" style="fill:#fff"></path><path d="M273.74,115.49h-.17a3.23,3.23,0,0,1-2.28-1.2,6.76,6.76,0,0,1-1.34-4.9c.27-3.14,2.23-5.61,4.42-5.61h.18a3.21,3.21,0,0,1,2.27,1.2,6.71,6.71,0,0,1,1.35,4.9h0C277.9,113,275.94,115.49,273.74,115.49Zm.63-11.39c-2,0-3.84,2.33-4.09,5.31a6.38,6.38,0,0,0,1.26,4.66,2.92,2.92,0,0,0,2,1.08c2.09.14,4-2.25,4.26-5.3a6.43,6.43,0,0,0-1.27-4.66,2.9,2.9,0,0,0-2-1.08Zm3.63,5.77h0Z" style="fill:#fff"></path><path d="M280.07,109.51a.14.14,0,0,1-.15-.1c-.29-.7-1.82-.18-1.83-.18a.16.16,0,0,1-.21-.1.16.16,0,0,1,.1-.21c.07,0,1.83-.63,2.24.37a.15.15,0,0,1-.09.21Z" style="fill:#fff"></path><path d="M278.53,120.43s-2.74-1.51-10.93-4.14c.34,2.4,1.63,4.69,5.83,6S278.53,120.43,278.53,120.43Z" style="fill:#fff"></path><path d="M252.5,111.79a9.09,9.09,0,0,0,3.62,5.61c2.41,1.62,3.41-1,3.35-4.05-.07-2.75-.47-6.57-3.18-6.95S251.9,108.9,252.5,111.79Z" style="fill:#ce7a63"></path><path d="M272,107.75c-.12.84.23,1.58.79,1.66s1.09-.56,1.21-1.4-.24-1.58-.79-1.65S272.07,106.91,272,107.75Z" style="fill:#263238"></path><path d="M281.27,109c-.12.85.24,1.59.79,1.66s1.09-.55,1.21-1.4-.24-1.58-.79-1.65S281.39,108.17,281.27,109Z" style="fill:#263238"></path><path d="M278.91,109.52s1.45,5,3.35,7.59c-1.64,1.27-4.13.4-4.13.4Z" style="fill:#ba4d3c"></path><path d="M269.65,104.56a.6.6,0,0,1-.21-.14.5.5,0,0,1,0-.71,5,5,0,0,1,4.4-1.27.5.5,0,0,1-.26,1h0a4,4,0,0,0-3.48,1A.5.5,0,0,1,269.65,104.56Z" style="fill:#263238"></path><path d="M287,105.58a.5.5,0,0,1-.44-.17,3.91,3.91,0,0,0-3.3-1.43.48.48,0,0,1-.55-.43.5.5,0,0,1,.42-.56,5,5,0,0,1,4.19,1.76.51.51,0,0,1-.05.71A.47.47,0,0,1,287,105.58Z" style="fill:#263238"></path><path d="M242.43,137.4l-.09-.05L233.12,131c-3.09-2.13-6.13-4.31-9.15-6.47-1.5-1.08-3-2.19-4.42-3.29s-2.89-2.2-4.26-3.31-2.66-2.25-3.84-3.32c-.71-.65-1.36-1.3-1.89-1.87a21.08,21.08,0,0,1,.7-3.47,80.7,80.7,0,0,1,3.15-8.87c1.23-3,2.6-6.12,4-9.2l4.28-9.26.06-.12a5,5,0,0,0-8.11-5.51c-2.56,2.68-4.82,5.4-7.07,8.24s-4.34,5.8-6.36,8.9a74.78,74.78,0,0,0-5.52,10.09,37.44,37.44,0,0,0-2.16,6.26,20.48,20.48,0,0,0-.59,4.12,15.33,15.33,0,0,0,.86,5.88,6.18,6.18,0,0,0,.57,1.19l.2.34a41.21,41.21,0,0,0,4.62,6.11c1.51,1.71,3.05,3.2,4.57,4.65s3.07,2.83,4.61,4.17,3.12,2.61,4.69,3.87c3.13,2.53,6.33,4.9,9.56,7.22s6.47,4.5,10,6.66a9.91,9.91,0,0,0,10.85-16.59Z" style="fill:#cf7a64"></path><path d="M220.57,84.24,228,76,216,70.2s-5.84,8.28-1.94,12.09Z" style="fill:#ce7a63"></path><path d="M227.53,64.48,223,63.16a3.83,3.83,0,0,0-4.54,2l-2.41,5L228,76l2.1-6.68A3.85,3.85,0,0,0,227.53,64.48Z" style="fill:#ce7a63"></path><path d="M253.05,147.09c-2.28,9.77-12.06,16.17-21.83,13.86-.37-.08-.74-.18-1.12-.29-5.63-1.66-16.33-4.47-20.47-11.53,2.16-12.66,6.2-29,11.71-29.33,10.84,3.86,23.17,10.76,29.89,11.88C254.65,132.25,254.75,139.79,253.05,147.09Z" style="fill:#263238"></path><g style="opacity:0.2"><path d="M219.77,126.59a39.22,39.22,0,0,1,12.47.91,45.72,45.72,0,0,1,12.43,4.39,47.18,47.18,0,0,0,9.21,3.63,9.72,9.72,0,0,0-.28-1.18,45.62,45.62,0,0,1-8.46-3.4,47.22,47.22,0,0,0-12.68-4.47,40,40,0,0,0-12.76-.93c-1.2.08-2.42.16-3.82.15-.16.34-.32.68-.47,1C217,126.77,218.42,126.68,219.77,126.59Z" style="fill:#fff"></path><path d="M232.29,136.18a40,40,0,0,0-12.76-.93,39,39,0,0,1-6.93,0l-.27,1a38.45,38.45,0,0,0,7.27,0,38.73,38.73,0,0,1,12.47.91,45.72,45.72,0,0,1,12.43,4.39,47.17,47.17,0,0,0,8.95,3.56c.07-.35.13-.7.19-1a45.11,45.11,0,0,1-8.67-3.46A47.09,47.09,0,0,0,232.29,136.18Z" style="fill:#fff"></path><path d="M219.44,146a38.75,38.75,0,0,1,12.47.91,45.63,45.63,0,0,1,12.42,4.39A53.45,53.45,0,0,0,250,153.8c.21-.29.41-.6.6-.9a51.59,51.59,0,0,1-5.77-2.54,47.12,47.12,0,0,0-12.67-4.47,40,40,0,0,0-12.76-.93,37.35,37.35,0,0,1-8.93-.27c-.07.35-.13.69-.2,1A38.12,38.12,0,0,0,219.44,146Z" style="fill:#fff"></path><path d="M219.2,154.67c-1.22.08-2.41.16-3.76.15.56.36,1.14.7,1.73,1,.73,0,1.42-.07,2.1-.12a39.22,39.22,0,0,1,12.47.91A44.77,44.77,0,0,1,242.11,160c.43-.18.85-.36,1.26-.57A45.64,45.64,0,0,0,232,155.6,40,40,0,0,0,219.2,154.67Z" style="fill:#fff"></path></g><path d="M217.11,389.8c-7.06,2.28-10.13.8-14.23,1.44-3.5.55-4.31,1.08-7.13,1.55-2.35.39-2.94-.85-2.22-3.2.37-1.19-.92-1.66-1.4-3.53l9.29-6.37c2.48,1.29,10,8.28,14.12,7.61C219.46,386.67,219.93,388.89,217.11,389.8Z" style="fill:#89345B"></path><path d="M162.78,234.63s4.62,35.46,11,60.82c6.74,26.63,18.16,69.95,27.6,84.24-1,1.73-6,5.23-9.29,6.37,0,0-38.47-44.88-36.26-76.49-27-43.18-25.34-54.69-22.09-65Z" style="fill:#89345B"></path><path d="M162.78,234.63s4.62,35.46,11,60.82c6.74,26.63,18.16,69.95,27.6,84.24-1,1.73-6,5.23-9.29,6.37,0,0-38.47-44.88-36.26-76.49-27-43.18-25.34-54.69-22.09-65Z" style="fill:#fff;opacity:0.4"></path><path d="M200.36,376.09a20.09,20.09,0,0,0,2.06,2.86.83.83,0,0,1-.17,1.16c-3.13,2.82-8.45,5.49-10.15,6.31a.71.71,0,0,1-.87-.13l-2.13-2.53a.88.88,0,0,1,.3-1.24l9.91-6.56A.72.72,0,0,1,200.36,376.09Z" style="fill:#263238"></path><path d="M168.47,197.56c.65,3.88.91,8.65,1.3,18.06.48,7.94,4.48,22.63,2.15,24.06-4.2,3.73-16.63,6.15-39.67,5.41-2.34-11.15-3.1-19-13.66-43.13a9.35,9.35,0,0,1,6.28-13.11c1.55-.37,3.2-.73,4.9-1a127.15,127.15,0,0,1,18-2.45c2-.09,4.05-.12,6-.12A15.08,15.08,0,0,1,168.47,197.56Z" style="fill:#89345B"></path><path d="M139.3,225.81l-2.56-1.55a3.47,3.47,0,0,0-3.18-.21l-4.82,2.09a6.47,6.47,0,0,0-3.76,4.6l-.27,1.27c4.06,2.85,10.56,2.93,10.56,2.93l1.85.23a2.89,2.89,0,0,0,3.3-2.45l.5-3.66A3.31,3.31,0,0,0,139.3,225.81Z" style="fill:#ffb573"></path><path d="M126.73,202.81c-1.52,1.82-3.19,3.77-4.72,5.7s-3.1,3.88-4.58,5.83-2.89,3.93-4.15,5.88a30.35,30.35,0,0,0-2.89,5.46l-2-5.82a18.19,18.19,0,0,0,3.94,2.54,35.07,35.07,0,0,0,5,1.9,55.13,55.13,0,0,0,5.53,1.33c1.87.38,3.9.66,5.71.91l.24,0a3.05,3.05,0,0,1,.25,6,40.77,40.77,0,0,1-6.66.9,45.06,45.06,0,0,1-6.76-.13,35.6,35.6,0,0,1-6.94-1.36,25.61,25.61,0,0,1-6.94-3.28,5.19,5.19,0,0,1-2.11-5.5l.07-.32a34.48,34.48,0,0,1,3.52-8.59,78.08,78.08,0,0,1,4.37-7c1.53-2.24,3.14-4.38,4.8-6.48s3.33-4.1,5.23-6.14a6.12,6.12,0,0,1,9.2,8.07Z" style="fill:#ffb573"></path><path d="M129.18,187.8c-6.59-.37-10.37,1.46-18.3,13.17,3.07,7.72,13.75,15.12,13.75,15.12S135.17,198.82,129.18,187.8Z" style="fill:#89345B"></path><path d="M128.26,167.34c2.36,5.59,5.74,15.95,2.5,20.33,0,0,5.38-1.57,18,4.05,2.71-5.31,0-6.51,0-6.51-6.79-.64-7.63-5.41-7.45-10Z" style="fill:#ffb573"></path><path d="M146.13,190.6c-3.77,1.07-4.18,7-4.18,7s-11-4.73-13.66-9.47a38.51,38.51,0,0,0,3.08-2.59S143.58,188.69,146.13,190.6Z" style="fill:#fff"></path><path d="M149.69,189.48s3.14.25,5.25,4.28c-.28-8.58-4.39-8.81-4.39-8.81a5,5,0,0,0-3.54,0A4.16,4.16,0,0,1,149.69,189.48Z" style="fill:#fff"></path><path d="M133.59,170.54l7.72,4.64a17.44,17.44,0,0,0,.12,3.24c-2.55,0-6.51-2.24-7.32-4.76A8.61,8.61,0,0,1,133.59,170.54Z" style="opacity:0.2"></path><path d="M119.46,160.7c4.63,8.42,6.41,12.07,13,14.7,9.82,3.95,19.29-3,17.3-12.43-1.79-8.54-9.07-20.88-19.29-20.81A12.31,12.31,0,0,0,119.46,160.7Z" style="fill:#ffb573"></path><path d="M137.5,142.16c6.3,3.41-16.55,10.39-16.55,10.39,3.18,2,9.33,19.36-9.39,15.42C113.12,145.3,117.74,138.47,137.5,142.16Z" style="fill:#263238"></path><path d="M144.81,163.43s-2.93-.3-11,.43c1.18,2,3.14,3.47,7.26,3.06S144.81,163.43,144.81,163.43Z" style="fill:#fff"></path><path d="M133.34,157.89c.36.72,1,1.15,1.51,1s.57-.94.21-1.66-1-1.15-1.51-1S133,157.16,133.34,157.89Z" style="fill:#263238"></path><path d="M142.33,154.34c.36.72,1,1.15,1.51.95s.57-.94.21-1.66-1-1.15-1.51-1S142,153.61,142.33,154.34Z" style="fill:#263238"></path><path d="M142.35,152.8l1.5-1.22S143.63,153.31,142.35,152.8Z" style="fill:#263238"></path><path d="M141.78,155.94a23.25,23.25,0,0,0,4.66,3.83,3.24,3.24,0,0,1-2.44,1.42Z" style="fill:#ed893e"></path><path d="M119.53,169.36a6.64,6.64,0,0,0,5.13,1.46c2.24-.42,2-3.1.28-5.07-1.57-1.76-4.62-3.67-6.32-2.26S117.58,167.83,119.53,169.36Z" style="fill:#ffb573"></path><path d="M130,155.05a.49.49,0,0,0,.23-.28,3.41,3.41,0,0,1,2.17-2.45.44.44,0,0,0,.29-.57.51.51,0,0,0-.62-.3,4.29,4.29,0,0,0-2.78,3.06.49.49,0,0,0,.36.57A.52.52,0,0,0,130,155.05Z" style="fill:#263238"></path><path d="M144.6,149.27a.45.45,0,0,0,.27-.2.46.46,0,0,0-.19-.63,5,5,0,0,0-4.36-.42.43.43,0,0,0-.19.61.53.53,0,0,0,.65.22,3.91,3.91,0,0,1,3.44.37A.51.51,0,0,0,144.6,149.27Z" style="fill:#263238"></path><path d="M133.36,156.35l1.5-1.22S134.64,156.85,133.36,156.35Z" style="fill:#263238"></path></g><g id="freepik--Hearts--inject-123"><path d="M386.21,148.48c-.48-17.33-18.33-11.57-9.65,15.55C397.23,166.28,416,147.81,386.21,148.48Z" style="fill:#89345B;fill-rule:evenodd"></path><path d="M339.85,103.9c-11.3-6.7-14,4.52,6.56,11C355.22,105.51,350.05,88.75,339.85,103.9Z" style="fill:#89345B;fill-rule:evenodd"></path><path d="M148.85,79.31c-4.95-9.74-11.82-3-.31,10.67C158.92,87.29,162.76,73.22,148.85,79.31Z" style="fill:#89345B;fill-rule:evenodd"></path><path d="M89.29,115c-7.65-2.45-7.71,4.6,5.41,5.7C98.67,113.9,93.31,104.61,89.29,115Z" style="fill:#89345B;fill-rule:evenodd"></path></g></svg>