<svg xmlns="http://www.w3.org/2000/svg" xmlns:xlink="http://www.w3.org/1999/xlink" viewBox="0 0 500 500"><defs><clipPath id="freepik--clip-path--inject-129"><path d="M368.76,333S363.28,343,356.63,343s-10.86-13.69-10.86-13.69l3.81-2.67s4.32,7.66,7.05,7.8,5.72-5.13,5.72-5.13Z" style="fill:#e4897b"></path></clipPath><clipPath id="freepik--clip-path-2--inject-129"><path d="M406,321.64s-6.13,10.68-8.92,12.28-21.86-6.08-21.86-6.08l-3.48,4.69s20.81,11.71,26.85,9.85,14.6-14.44,14.6-14.44Z" style="fill:#e4897b"></path></clipPath></defs><g id="freepik--background-complete--inject-129"><rect y="382.4" width="500" height="0.25" style="fill:#ebebeb"></rect><rect x="416.78" y="398.49" width="33.12" height="0.25" style="fill:#ebebeb"></rect><rect x="322.53" y="401.21" width="8.69" height="0.25" style="fill:#ebebeb"></rect><rect x="396.59" y="389.21" width="19.19" height="0.25" style="fill:#ebebeb"></rect><rect x="52.46" y="390.89" width="43.19" height="0.25" style="fill:#ebebeb"></rect><rect x="104.56" y="390.89" width="6.33" height="0.25" style="fill:#ebebeb"></rect><rect x="131.47" y="395.11" width="93.68" height="0.25" style="fill:#ebebeb"></rect><path d="M237,337.8H43.91a5.71,5.71,0,0,1-5.7-5.71V60.66A5.71,5.71,0,0,1,43.91,55H237a5.71,5.71,0,0,1,5.71,5.71V332.09A5.71,5.71,0,0,1,237,337.8ZM43.91,55.2a5.46,5.46,0,0,0-5.45,5.46V332.09a5.46,5.46,0,0,0,5.45,5.46H237a5.47,5.47,0,0,0,5.46-5.46V60.66A5.47,5.47,0,0,0,237,55.2Z" style="fill:#ebebeb"></path><path d="M453.31,337.8H260.21a5.72,5.72,0,0,1-5.71-5.71V60.66A5.72,5.72,0,0,1,260.21,55h193.1A5.71,5.71,0,0,1,459,60.66V332.09A5.71,5.71,0,0,1,453.31,337.8ZM260.21,55.2a5.47,5.47,0,0,0-5.46,5.46V332.09a5.47,5.47,0,0,0,5.46,5.46h193.1a5.47,5.47,0,0,0,5.46-5.46V60.66a5.47,5.47,0,0,0-5.46-5.46Z" style="fill:#ebebeb"></path><polygon points="113.06 318.51 113.06 332.71 107.06 337.07 135.06 337.07 126.11 333.75 126.11 319.5 113.06 318.51" style="fill:#e0e0e0"></polygon><path d="M63.59,336.66v44.73h125V336.66Zm122.75,17.52H88.5V339.56h97.84Z" style="fill:#e0e0e0"></path><path d="M85.49,336.66v44.73h103.1V336.66Zm100.85,17.52H88.5V339.56h97.84Z" style="fill:#ebebeb"></path><rect x="166.17" y="339.56" width="20.17" height="14.62" style="fill:#e0e0e0"></rect><rect x="88.5" y="346.87" width="24.95" height="7.31" style="fill:#e0e0e0"></rect><rect x="115.29" y="349.84" width="18.78" height="4.34" style="fill:#e0e0e0"></rect><rect x="138.41" y="345.3" width="17.89" height="8.88" style="fill:#e0e0e0"></rect><polygon points="106.23 357.36 105.7 359.11 98.52 359.11 97.98 357.36 88.5 357.36 88.5 376.77 119.97 376.77 119.97 357.36 106.23 357.36" style="fill:#e0e0e0"></polygon><polygon points="143.63 357.36 143.09 359.11 135.91 359.11 135.37 357.36 121.64 357.36 121.64 376.77 153.1 376.77 153.1 357.36 143.63 357.36" style="fill:#e0e0e0"></polygon><polygon points="172.51 357.36 171.98 359.11 164.79 359.11 164.26 357.36 154.78 357.36 154.78 376.77 186.24 376.77 186.24 357.36 172.51 357.36" style="fill:#e0e0e0"></polygon><rect x="73.79" y="266.54" width="100.05" height="60.45" rx="3.53" style="fill:#e0e0e0"></rect><rect x="76.14" y="266.54" width="100.05" height="60.45" rx="3.53" style="fill:#e6e6e6"></rect><rect x="98.88" y="249.68" width="54.58" height="94.17" transform="translate(422.93 170.6) rotate(90)" style="fill:#f0f0f0"></rect><path d="M305,261.3h89.54a17.58,17.58,0,0,1,17.58,17.58V348.8H287.41V278.88A17.58,17.58,0,0,1,305,261.3Z" style="fill:#e6e6e6"></path><path d="M260.93,313.12h16a10.45,10.45,0,0,1,10.45,10.45v57.82H250.48V323.57A10.45,10.45,0,0,1,260.93,313.12Z" style="fill:#e0e0e0"></path><path d="M260.93,313.12h.34a10.45,10.45,0,0,1,10.45,10.45v57.82H250.48V323.57A10.45,10.45,0,0,1,260.93,313.12Z" style="fill:#ebebeb"></path><rect x="276.19" y="354.83" width="122.88" height="26.56" style="fill:#e6e6e6"></rect><rect x="265.4" y="330.54" width="139.75" height="27.87" rx="10.62" style="fill:#f5f5f5"></rect><rect x="369.01" y="330.54" width="35.95" height="27.87" rx="10.62" style="fill:#e0e0e0;isolation:isolate"></rect><path d="M395.91,313.12h16a10.45,10.45,0,0,1,10.45,10.45v57.82H385.46V323.57A10.45,10.45,0,0,1,395.91,313.12Z" style="fill:#e0e0e0"></path><path d="M395.91,313.12h.34a10.45,10.45,0,0,1,10.45,10.45v57.82H385.46V323.57A10.45,10.45,0,0,1,395.91,313.12Z" style="fill:#f0f0f0"></path><rect x="300.18" y="106.5" width="118.63" height="122.58" transform="translate(719 335.58) rotate(180)" style="fill:#ebebeb"></rect><rect x="296.04" y="106.5" width="118.63" height="122.58" transform="translate(710.71 335.58) rotate(180)" style="fill:#f0f0f0"></rect><rect x="299.18" y="109.41" width="112.5" height="116.83" style="fill:#e0e0e0"></rect><rect x="301.99" y="109.4" width="109.69" height="116.83" style="fill:#f5f5f5"></rect><rect x="355.7" y="109.41" width="2.23" height="116.83" transform="translate(713.63 335.64) rotate(180)" style="fill:#ebebeb"></rect><polygon points="342.92 109.4 311.66 226.23 308.66 226.23 339.92 109.4 342.92 109.4" style="fill:#fff"></polygon><rect x="354.75" y="107.6" width="1.91" height="120.87" transform="translate(711.4 336.08) rotate(180)" style="fill:#f0f0f0"></rect><polygon points="331.57 109.4 301.99 219.96 301.99 159.19 315.31 109.4 331.57 109.4" style="fill:#fff"></polygon><polygon points="411.68 120 411.68 131.22 386.25 226.23 383.25 226.23 411.68 120" style="fill:#fff"></polygon><polygon points="411.68 142.65 411.68 203.42 405.58 226.23 389.32 226.23 411.68 142.65" style="fill:#fff"></polygon><rect x="91.78" y="113.48" width="71.83" height="87.4" transform="translate(255.39 314.37) rotate(180)" style="fill:#e6e6e6"></rect><polygon points="108.22 179.24 145.96 142.14 105.12 135.4 108.22 179.24" style="fill:#e0e0e0"></polygon><polygon points="145.05 170.44 146.92 141.99 118.5 148.97 116.44 170.74 145.05 170.44" style="fill:#f0f0f0"></polygon><circle cx="107.87" cy="130.41" r="11.47" transform="translate(-43.84 205.44) rotate(-76.72)" style="fill:#fafafa"></circle><path d="M141.34,180.59a5.57,5.57,0,1,1,5.56,5.56A5.56,5.56,0,0,1,141.34,180.59Z" style="fill:#e0e0e0"></path><polygon points="145.58 190.37 129.51 180.59 143.02 169.46 145.58 190.37" style="fill:#f5f5f5"></polygon><rect x="123.45" y="124.6" width="3.16" height="69.79" style="fill:#e0e0e0"></rect><rect x="152.78" y="124.6" width="4.09" height="66.7" style="fill:#ebebeb"></rect><rect x="98.99" y="170.74" width="20.88" height="20.88" style="fill:#ebebeb"></rect></g><g id="freepik--Shadow--inject-129"><ellipse id="freepik--path--inject-129" cx="250" cy="416.24" rx="193.89" ry="11.32" style="fill:#f5f5f5"></ellipse></g><g id="freepik--Screen--inject-129"><rect x="85.59" y="101.96" width="286.73" height="237.51" rx="5.61" style="fill:#e0e0e0"></rect><rect x="81.59" y="97.96" width="286.73" height="237.51" rx="5.61" style="fill:#89345B"></rect><rect x="81.59" y="97.96" width="286.73" height="237.51" rx="5.61" style="fill:#fff;opacity:0.7000000000000001;isolation:isolate"></rect><polygon points="96.44 217.32 102.47 224.45 102.47 210.2 96.44 217.32" style="fill:#89345B"></polygon><polygon points="352.47 217.32 346.44 210.2 346.44 224.45 352.47 217.32" style="fill:#89345B"></polygon><rect x="90.29" y="111.41" width="268.34" height="206.46" rx="3.81" style="fill:none;stroke:#fff;stroke-miterlimit:10"></rect><path d="M270.13,119H178.79a7.91,7.91,0,0,1-7.91-7.91h0a7.91,7.91,0,0,1,7.91-7.91h91.34A7.91,7.91,0,0,1,278,111.1h0A7.92,7.92,0,0,1,270.13,119Z" style="fill:#89345B"></path><path d="M192.16,111.23a3.3,3.3,0,0,1,3.45-3.34,3.23,3.23,0,0,1,2.48,1l-.61.59a2.37,2.37,0,0,0-1.83-.78,2.51,2.51,0,1,0,0,5,2.41,2.41,0,0,0,1.83-.78l.61.59a3.24,3.24,0,0,1-2.49,1A3.29,3.29,0,0,1,192.16,111.23Z" style="fill:#fff"></path><path d="M205,108v6.51h-.93v-2.9h-3.74v2.9h-.93V108h.93v2.8h3.74V108Z" style="fill:#fff"></path><path d="M211.13,112.86h-3.46l-.72,1.62h-1l2.95-6.51h.92l3,6.51h-1Zm-.33-.75-1.4-3.19L208,112.11Z" style="fill:#fff"></path><path d="M218.15,114.48l-1.41-2-.41,0h-1.61v2h-.93V108h2.54c1.69,0,2.72.86,2.72,2.27a2.06,2.06,0,0,1-1.43,2.06l1.54,2.18Zm0-4.24c0-.93-.63-1.46-1.82-1.46h-1.58v2.93h1.58C217.49,111.71,218.12,111.17,218.12,110.24Z" style="fill:#fff"></path><path d="M224.71,112.86h-3.46l-.72,1.62h-1l3-6.51h.92l3,6.51h-1Zm-.33-.75-1.4-3.19-1.41,3.19Z" style="fill:#fff"></path><path d="M226.75,111.23a3.3,3.3,0,0,1,3.45-3.34,3.21,3.21,0,0,1,2.47,1l-.6.59a2.39,2.39,0,0,0-1.83-.78,2.51,2.51,0,1,0,0,5,2.42,2.42,0,0,0,1.83-.78l.6.59a3.22,3.22,0,0,1-2.48,1A3.29,3.29,0,0,1,226.75,111.23Z" style="fill:#fff"></path><path d="M235.22,108.78H233V108h5.39v.81h-2.23v5.7h-.93Z" style="fill:#fff"></path><path d="M244.12,113.67v.81h-4.73V108H244v.81h-3.67v2h3.27v.79h-3.27v2.1Z" style="fill:#fff"></path><path d="M250,114.48l-1.41-2-.41,0h-1.61v2h-.93V108h2.54c1.69,0,2.72.86,2.72,2.27a2.06,2.06,0,0,1-1.43,2.06l1.54,2.18Zm0-4.24c0-.93-.63-1.46-1.82-1.46h-1.58v2.93h1.58C249.33,111.71,250,111.17,250,110.24Z" style="fill:#fff"></path><path d="M251.8,113.74l.35-.73a3.32,3.32,0,0,0,2.14.76c1.13,0,1.62-.44,1.62-1,0-1.59-3.95-.58-3.95-3,0-1,.78-1.87,2.49-1.87a3.86,3.86,0,0,1,2.1.58l-.31.75a3.31,3.31,0,0,0-1.79-.53c-1.1,0-1.58.46-1.58,1,0,1.59,3.95.59,3.95,3,0,1-.8,1.85-2.53,1.85A3.89,3.89,0,0,1,251.8,113.74Z" style="fill:#fff"></path><path d="M243.15,325.32H205.76a8.34,8.34,0,0,1-8.34-8.35h0a8.33,8.33,0,0,1,8.34-8.34h37.39a8.33,8.33,0,0,1,8.34,8.34h0A8.34,8.34,0,0,1,243.15,325.32Z" style="fill:#89345B"></path><path d="M214.32,319.42l-1.26-1.79-.37,0h-1.44v1.77h-.84v-5.83h2.28c1.52,0,2.44.76,2.44,2a1.84,1.84,0,0,1-1.29,1.84l1.38,2Zm0-3.8c0-.83-.56-1.31-1.63-1.31h-1.41v2.63h1.41C213.73,316.94,214.29,316.45,214.29,315.62Z" style="fill:#fff"></path><path d="M220.72,318.7v.72h-4.24v-5.83h4.12v.72h-3.29v1.79h2.93v.71h-2.93v1.89Z" style="fill:#fff"></path><path d="M225.79,318h-3.1l-.65,1.46h-.86l2.65-5.83h.82l2.66,5.83h-.88Zm-.29-.66-1.26-2.86L223,317.3Z" style="fill:#fff"></path><path d="M228.18,313.59h2.46a2.92,2.92,0,1,1,0,5.83h-2.46Zm2.41,5.11a2.2,2.2,0,1,0,0-4.39H229v4.39Z" style="fill:#fff"></path><path d="M237.05,317.4v2h-.82v-2l-2.32-3.8h.89l1.87,3.07,1.88-3.07h.82Z" style="fill:#fff"></path></g><g id="freepik--player-3--inject-129"><rect x="262.87" y="149.77" width="68.85" height="146.66" rx="4.48" style="fill:#89345B"></rect><rect x="262.87" y="149.77" width="68.85" height="146.66" rx="4.48" style="fill:#fff;opacity:0.8;isolation:isolate"></rect><path d="M327.25,150.77a3.49,3.49,0,0,1,3.48,3.48V292a3.49,3.49,0,0,1-3.48,3.48h-59.9a3.48,3.48,0,0,1-3.48-3.48V154.25a3.48,3.48,0,0,1,3.48-3.48h59.9m0-1h-59.9a4.49,4.49,0,0,0-4.48,4.48V292a4.49,4.49,0,0,0,4.48,4.48h59.9a4.49,4.49,0,0,0,4.48-4.48V154.25a4.49,4.49,0,0,0-4.48-4.48Z" style="fill:#89345B"></path><g id="freepik--group--inject-129"><path d="M276.81,207.54c-1.16,7.8-.75,33-.75,33l2.84-7.9s3.15,23.76,2.62,23.16,2.94-14.34,2.94-14.34l7.4,23.57,3.8-18.25s1.12,17,1.76,16,5.19-26.11,5.19-26.11l4.31,17.5,1.66-25.7,2.19,7.77s-1.35-34.88-3.85-45-17.47-11.39-17.47-11.39Z" style="fill:#89345B"></path><path d="M282.15,200.34l-1.36,10.76-2.31.77s.21-8.51.42-11.53,1.38-14.2,1.38-14.2l3.71.63S282.47,197.82,282.15,200.34Z" style="fill:#e4897b"></path><path d="M300.49,185.65s2.42,6.89,5.31,9.08,8.93-3.51,8.93-3.51l-1.07-2s-4.08,3.2-5.89,2.8-4-8.48-4-8.48Z" style="fill:#e4897b"></path><path d="M286.44,174.9l7,6s1.53-3,3.29-6,2.43-5.6,1.85-7.33-3.57-5.89-7-6.53S281.88,171,286.44,174.9Z" style="fill:#89345B"></path><path d="M290.13,266.58c2-16.48,4.7-39.35,5.1-44.41,3.36,9,4.51,29.35,4.88,44.28a1.38,1.38,0,0,0,1.38,1.34h5.11a1.38,1.38,0,0,0,1.38-1.34c.76-26.75-3.24-54.66-4.7-62.64H284.43c0,2.47-.37,28.87-1,40.92-.38,7.46-.76,15.08-1.08,21.62a1.38,1.38,0,0,0,1.38,1.44h5A1.38,1.38,0,0,0,290.13,266.58Z" style="fill:#2e353a"></path><path d="M295.23,222.18a50.08,50.08,0,0,1,2.11,8.15,51.07,51.07,0,0,0-1.58-14.86Z" style="opacity:0.2;isolation:isolate"></path><path d="M281.52,178.07c.14,1.14.29,2.44.45,3.85.11.89.22,1.84.34,2.82.18,1.52.36,3.15.56,4.84l.15,1.33c.47,4.16,1,8.66,1.45,13.12h19s1.45-13.63-2-26Z" style="fill:#2e353a"></path><path d="M288.43,179.34c1.7,1.41,5.66.68,5.66.68s1.51-1,1-1.75c-1.48-.18-1.27-.62-1.6-1.48a4.36,4.36,0,0,1-.22-1.67c0-.31,0-.63.08-.94l-5.09-3.44C289,173.13,290,177.52,288.43,179.34Z" style="fill:#e4897b"></path><path d="M289.45,173a4.2,4.2,0,0,0,4,3.78,4.36,4.36,0,0,1-.22-1.67Z" style="opacity:0.2;isolation:isolate"></path><path d="M294.48,162.12s2.09,4.33.21,6.82-4.47-6-4.47-6Z" style="fill:#263238"></path><path d="M288.8,174.7a4.31,4.31,0,0,0,5.22.15,4.81,4.81,0,0,0,2-2.94c0-.17.06-.34.09-.51.33-3.14-.78-8.11-4.28-9a4.66,4.66,0,0,0-5.79,5.46C286.64,171.19,286.86,173.19,288.8,174.7Z" style="fill:#e4897b"></path><path d="M291.27,168.11c0,.28.21.48.39.46s.3-.27.27-.54-.22-.48-.4-.46S291.24,167.84,291.27,168.11Z" style="fill:#263238"></path><path d="M294.39,167.71c0,.28.21.48.39.46s.3-.27.27-.55-.22-.48-.4-.45S294.36,167.45,294.39,167.71Z" style="fill:#263238"></path><path d="M293.42,168a9.86,9.86,0,0,0,1.62,2.19,1.61,1.61,0,0,1-1.29.41Z" style="fill:#de5753"></path><path d="M295.38,166a.19.19,0,0,1-.16.06,1.32,1.32,0,0,0-1.14.32.16.16,0,1,1-.24-.22h0a1.58,1.58,0,0,1,1.42-.42.16.16,0,0,1,.14.18h0Z" style="fill:#263238"></path><path d="M290.39,166.67a.16.16,0,0,1-.08-.06.15.15,0,0,1,.07-.21h0a1.6,1.6,0,0,1,1.49,0,.16.16,0,0,1,.05.23h0a.16.16,0,0,1-.22,0h0a1.31,1.31,0,0,0-1.19,0A.16.16,0,0,1,290.39,166.67Z" style="fill:#263238"></path><path d="M288,163.28l.4.59c-1,.56-.6,1.81-.27,2.35a4.11,4.11,0,0,1-.48,4.17s-.13-.54-.56-.33.2,3,1.32,4.19a8.92,8.92,0,0,1-2.84-3.8c-1.19-2.6-1.68-4.86-1.31-6Z" style="fill:#263238"></path><path d="M284.88,170.8a3.26,3.26,0,0,0,2.06,1.39c1.12.22,1.59-.8,1.21-1.81s-1.35-2.12-2.43-1.88A1.46,1.46,0,0,0,284.88,170.8Z" style="fill:#e4897b"></path><path d="M293.44,172.22a1.84,1.84,0,0,0-2.17-.84" style="fill:none;stroke:#263238;stroke-linecap:round;stroke-linejoin:round;stroke-width:0.5px"></path><path d="M287.2,167.67c.29-1.66,4.75-4.23,6.22-4.39s4.24,3.81,5,5.29-1.68,6.33-1.68,6.33,2.83-4.48,2.83-5.5-1.37-5.51-4.15-7.28c0,0-3-4.33-8-3.64s-6.22,10.35-5.86,13.27,6.93,4.66,6.93,4.66a8.13,8.13,0,0,1-2-4.37A7,7,0,0,1,287.2,167.67Z" style="fill:#89345B"></path><path d="M287.2,167.67c.29-1.66,4.75-4.23,6.22-4.39s4.24,3.81,5,5.29-1.68,6.33-1.68,6.33,2.83-4.48,2.83-5.5-1.37-5.51-4.15-7.28c0,0-3-4.33-8-3.64s-6.22,10.35-5.86,13.27,6.93,4.66,6.93,4.66a8.13,8.13,0,0,1-2-4.37A7,7,0,0,1,287.2,167.67Z" style="fill:#fff;opacity:0.6000000000000001;isolation:isolate"></path><path d="M286.72,283.74h-4.31a.32.32,0,0,0-.3.25l-.7,3.16a.52.52,0,0,0,.4.62h.12c1.39,0,2.41-.11,4.16-.11,1.08,0,4.33.12,5.82.12s1.69-1.48,1.08-1.61c-2.74-.6-4.8-1.42-5.67-2.21A.88.88,0,0,0,286.72,283.74Z" style="fill:#263238"></path><path d="M288.76,267.79A83.2,83.2,0,0,0,287.32,284l-5.21,0,.87-16.43Z" style="fill:#263238"></path><path d="M288.76,267.79A83.2,83.2,0,0,0,287.32,284l-5.21,0,.87-16.43Z" style="fill:#fff;opacity:0.30000000000000004;isolation:isolate"></path><path d="M305,283.63H300.7a.3.3,0,0,0-.3.25l-.7,3.16a.52.52,0,0,0,.4.62h.11c1.4,0,2.42-.11,4.17-.11,1.08,0,4.33.11,5.82.11s1.69-1.47,1.08-1.6a14.13,14.13,0,0,1-5.67-2.21A.9.9,0,0,0,305,283.63Z" style="fill:#263238"></path><path d="M305.64,284.3l1.28-16.74-5.43.23s-.58,13.77-1.19,16.51Z" style="fill:#263238"></path><path d="M305.64,284.3l1.28-16.74-5.43.23s-.58,13.77-1.19,16.51Z" style="fill:#fff;opacity:0.30000000000000004;isolation:isolate"></path><path d="M294.23,182s-9.18,17.83-17.42,25.55l1.18-4.66s1.38-22.63,2.29-24.69,7.93-.63,7.93-.63-2.09-2.13-1-2.08,6.18,4.73,6.18,4.73,1.5-5.47,2.28-5.31.47,1.89.47,1.89a33.29,33.29,0,0,1,5.24-.67c.93.17,5.55,15.15,5.55,15.15Z" style="fill:#89345B"></path><path d="M294.23,182s-9.18,17.83-17.42,25.55l1.18-4.66s1.38-22.63,2.29-24.69,7.93-.63,7.93-.63-2.09-2.13-1-2.08,6.18,4.73,6.18,4.73,1.5-5.47,2.28-5.31.47,1.89.47,1.89a33.29,33.29,0,0,1,5.24-.67c.93.17,5.55,15.15,5.55,15.15Z" style="fill:#fff;opacity:0.6000000000000001;isolation:isolate"></path><path d="M284.18,201.37a83.12,83.12,0,0,1,11.95-1.51,27.22,27.22,0,0,1,7.6.75s3.76,18.42,2.7,27.2c0,0-7.21-19.22-10.1-23.78,0,0-6.12,15.46-12.32,23.78,0,0-1.12,0-.66-2,0,0-1.86-18.18.88-24" style="fill:#2e353a"></path><path d="M284.18,201.37a83.12,83.12,0,0,1,11.95-1.51,27.22,27.22,0,0,1,7.6.75s3.76,18.42,2.7,27.2c0,0-7.21-19.22-10.1-23.78,0,0-6.12,15.46-12.32,23.78,0,0-1.12,0-.66-2,0,0-1.86-18.18.88-24" style="fill:#fff;opacity:0.2;isolation:isolate"></path><circle cx="296.56" cy="201.63" r="2.76" style="fill:#89345B"></circle><circle cx="296.56" cy="201.63" r="2.76" style="fill:#fff;opacity:0.30000000000000004;isolation:isolate"></circle><path d="M310.08,191.05l2,3.61,2.69-2.86s.32.54,1.12,0,3.7-3.48,3.58-3.79-1.73-3.47-2.42-3.79-3.93,3.79-3.93,3.79l-.23,1.17Z" style="fill:#89345B"></path><path d="M310.08,191.05l2,3.61,2.69-2.86s.32.54,1.12,0,3.7-3.48,3.58-3.79-1.73-3.47-2.42-3.79-3.93,3.79-3.93,3.79l-.23,1.17Z" style="fill:#fff;opacity:0.6000000000000001;isolation:isolate"></path><path d="M281.52,209.22l-4-.87.42,3.9s-.62-.11-.76.84.23,5.08.54,5.19,3.76.95,4.45.63-.31-5.45-.31-5.45l-.73-.93Z" style="fill:#89345B"></path><path d="M281.52,209.22l-4-.87.42,3.9s-.62-.11-.76.84.23,5.08.54,5.19,3.76.95,4.45.63-.31-5.45-.31-5.45l-.73-.93Z" style="fill:#fff;opacity:0.6000000000000001;isolation:isolate"></path><rect x="314.76" y="180.6" width="1.29" height="106.44" style="fill:#89345B"></rect><polygon points="315.37 170.97 317.33 173.01 315.37 178.07 313.52 173.01 315.37 170.97" style="fill:#89345B"></polygon><path d="M319.14,176.46a22.65,22.65,0,0,0,.8-5.18l2.19-.31-3.23-.62s-.22,6-3.48,9.27c-3.25-3.3-3.47-9.27-3.47-9.27l-3.23.62,2.19.31a22.11,22.11,0,0,0,.8,5.18h0l-3,1.62,3.37-.39a15.21,15.21,0,0,0,3.05,5.29l.28.29.28-.29a15.19,15.19,0,0,0,3.06-5.29l3.37.39-3-1.62Z" style="fill:#89345B"></path><path d="M319.14,176.46a22.65,22.65,0,0,0,.8-5.18l2.19-.31-3.23-.62s-.22,6-3.48,9.27c-3.25-3.3-3.47-9.27-3.47-9.27l-3.23.62,2.19.31a22.11,22.11,0,0,0,.8,5.18h0l-3,1.62,3.37-.39a15.21,15.21,0,0,0,3.05,5.29l.28.29.28-.29a15.19,15.19,0,0,0,3.06-5.29l3.37.39-3-1.62Z" style="fill:#fff;opacity:0.6000000000000001;isolation:isolate"></path><polygon points="313.52 173.01 315.42 174.52 317.33 173.01 315.37 170.97 313.52 173.01" style="fill:#fff;opacity:0.2;isolation:isolate"></polygon></g></g><g id="freepik--player-2--inject-129"><rect x="210.14" y="134.26" width="28.62" height="8.25" rx="2.11" style="fill:#263238"></rect><polygon points="220.76 143.06 224.46 146.76 228.15 143.06 220.76 143.06" style="fill:#263238"></polygon><path d="M216.58,137.82c0,.72-.52,1.16-1.38,1.16h-.82v1h-.47v-3.31h1.29C216.06,136.67,216.58,137.11,216.58,137.82Zm-.47,0c0-.47-.32-.74-.92-.74h-.81v1.49h.81C215.79,138.57,216.11,138.3,216.11,137.82Z" style="fill:#fff"></path><path d="M217.28,136.67h.47v2.9h1.79V140h-2.26Z" style="fill:#fff"></path><path d="M222.21,139.15h-1.76l-.36.83h-.49l1.5-3.31h.47l1.5,3.31h-.5Zm-.17-.38-.71-1.62-.71,1.62Z" style="fill:#fff"></path><path d="M224.63,138.84V140h-.47v-1.15l-1.31-2.16h.5l1.06,1.75,1.07-1.75H226Z" style="fill:#fff"></path><path d="M228.77,139.57V140h-2.4v-3.31h2.33v.41h-1.86v1h1.66v.4h-1.66v1.07Z" style="fill:#fff"></path><path d="M231.75,140l-.72-1h-1v1h-.48v-3.31h1.3c.86,0,1.38.44,1.38,1.15a1.06,1.06,0,0,1-.73,1.05l.78,1.11Zm0-2.16c0-.47-.31-.74-.92-.74H230v1.49h.8C231.42,138.57,231.73,138.3,231.73,137.82Z" style="fill:#fff"></path><path d="M236.3,139.57V140h-2.38v-.32l1.35-1.3c.35-.34.42-.55.42-.76s-.25-.55-.71-.55a1.08,1.08,0,0,0-.85.36l-.32-.28a1.56,1.56,0,0,1,1.21-.5c.69,0,1.14.36,1.14.92a1.35,1.35,0,0,1-.54,1l-1,1Z" style="fill:#fff"></path><rect x="190.03" y="149.47" width="68.85" height="146.66" rx="4.48" style="fill:#89345B"></rect><rect x="190.03" y="149.47" width="68.85" height="146.66" rx="4.48" style="fill:#fff;opacity:0.5;isolation:isolate"></rect><path d="M254.4,152.47a1.48,1.48,0,0,1,1.48,1.48V291.66a1.48,1.48,0,0,1-1.48,1.48H194.51a1.48,1.48,0,0,1-1.48-1.48V154a1.48,1.48,0,0,1,1.48-1.48H254.4m0-3H194.51A4.48,4.48,0,0,0,190,154V291.66a4.48,4.48,0,0,0,4.48,4.48H254.4a4.48,4.48,0,0,0,4.48-4.48V154a4.48,4.48,0,0,0-4.48-4.48Z" style="fill:#263238"></path><path d="M210.73,182s-.52-6.06,0-8,3.12-1.55,3.12-1.55,2-2.77,3.92-2.54,6.82,2.08,6.82,6.7-4,10.34-8.64,11.9c0,0-.19,2-3.41,2.62,0,0,.39,1.71-2.33,2.4a2.9,2.9,0,0,1-2.06,2.61,3.35,3.35,0,0,1-.77,2.35,3.9,3.9,0,0,1,.33,2.5,3.27,3.27,0,0,1,.71,2.33,2.29,2.29,0,0,1,1.31,1.71s.89,0,1.06,1.19a1.11,1.11,0,0,1,.63,1.29,1.5,1.5,0,0,1-.17,1.88s.35.27-.17,1a1.05,1.05,0,0,1-.7,1.23,3.62,3.62,0,0,0-.4,2l-1-.29a4.38,4.38,0,0,1,1-1.91,2,2,0,0,1,.35-1.06,1.26,1.26,0,0,1,.23-1,3.35,3.35,0,0,1,0-1.43s-1-.63-.83-1.17c0,0-1.31-.51-1.25-1.39,0,0-1.85-.79-2-2.08a2.27,2.27,0,0,1-1.22-3,3.17,3.17,0,0,1-.52-3.31s-.57-2.54.87-4a4,4,0,0,1,2.12-3.55s-.67-1.77,1.61-3.35A5.78,5.78,0,0,1,210.73,182Z" style="fill:#2e353a"></path><path d="M226.63,189.2c2.18.15,3.8,13.2,4.49,15.74s4.16,11.72,4.16,11.72l-1.5.84s-4.51-10.29-4.85-11.25-3.12-12.4-3.12-12.4Z" style="fill:#eec1bb"></path><path d="M235.09,215.42l.88.26,2.08,4.4s-2.54,3.58-2.77,3.46-2.38-3.93-2.38-5a10.53,10.53,0,0,1,.14-1.77l-1.87-3.41,2.58-2.29Z" style="fill:#89345B"></path><polygon points="227.74 208.59 226.63 189.2 209.73 189.76 212.85 209.88 227.74 208.59" style="fill:#89345B"></polygon><polygon points="227.74 208.59 226.63 189.2 209.73 189.76 212.85 209.88 227.74 208.59" style="fill:#fff;opacity:0.7000000000000001;isolation:isolate"></polygon><path d="M228.69,212.69s3.62,24.74,4.44,34.87c1.08,13.22,6.87,32.73,6.87,32.73l-2.66.57s-8.6-16.73-9.81-31.51c-6.75-15.33-6.59-33.87-6.59-33.87Z" style="fill:#2e353a"></path><path d="M245.05,285.91a3.89,3.89,0,0,0-1.35-.34h0s-1.61-.95-3.21-4.65h-1.8a1.5,1.5,0,0,0-1.39,1,1.11,1.11,0,0,0-.05.25,11.23,11.23,0,0,0,.14,1.3,35.61,35.61,0,0,0,1.05,4.24l.31-.08-.56-2.69c-.18-.91.78,0,1.22.89s1.13,1.85,3.12,1.4C244.85,286.66,245.78,286.33,245.05,285.91Z" style="fill:#2e353a"></path><path d="M221.35,212.47s-.57,25-1.46,35.13c-1.15,13.21,1.3,33.41,1.3,33.41l-2.71.12s-5.68-17.92-4.4-32.7c-4.09-16.25-.84-34.5-.84-34.5Z" style="fill:#2e353a"></path><path d="M225.41,286.74a3.6,3.6,0,0,0-1.3-.49h0s-1.51-1.12-2.7-5l-1.79-.2a1.48,1.48,0,0,0-1.48.83.75.75,0,0,0-.08.24,9.54,9.54,0,0,0,0,1.31,34.72,34.72,0,0,0,.59,4.33l.31-.05L218.7,285c-.09-.93.77.05,1.11,1s.93,2,2.95,1.72C225.12,287.46,226.09,287.23,225.41,286.74Z" style="fill:#2e353a"></path><path d="M220.08,191.82c-3.46-.44-4.5-1.92-4.5-1.92,2.2-2.07.37-5.66.37-5.66l4.17.78a12.76,12.76,0,0,0-.17,1.75c0,2.53,1.12,2.56,1.12,2.56C221.8,190.7,220.08,191.82,220.08,191.82Z" style="fill:#eec1bb"></path><path d="M220.12,185a12.76,12.76,0,0,0-.17,1.75,4.64,4.64,0,0,1-4-2.53Z" style="opacity:0.2;isolation:isolate"></path><path d="M217.81,173.37c3.63-.2,4.9,1.68,5.37,5.39.58,4.65-.27,8-4.85,7.27C212.11,185,211.8,173.7,217.81,173.37Z" style="fill:#eec1bb"></path><path d="M220.83,178.69a7.47,7.47,0,0,0,1.13,1.44,1,1,0,0,1-.93.47Z" style="fill:#d4827d"></path><path d="M218.59,178.51c0,.3-.12.56-.31.57s-.38-.21-.4-.51.11-.55.31-.57S218.57,178.22,218.59,178.51Z" style="fill:#2e353a"></path><path d="M218.11,178l.63-.31S218.46,178.29,218.11,178Z" style="fill:#2e353a"></path><path d="M222.28,178.16c0,.3-.12.55-.32.57s-.37-.21-.4-.51.12-.55.32-.57S222.26,177.87,222.28,178.16Z" style="fill:#2e353a"></path><path d="M221.8,177.67l.63-.3S222.15,177.94,221.8,177.67Z" style="fill:#2e353a"></path><path d="M218.48,176.37a1.88,1.88,0,0,0-1.66-.07" style="fill:none;stroke:#2e353a;stroke-linecap:round;stroke-linejoin:round;stroke-width:0.7246800000000001px"></path><path d="M221.08,176a1.69,1.69,0,0,1,1.43-.35" style="fill:none;stroke:#2e353a;stroke-linecap:round;stroke-linejoin:round;stroke-width:0.7246800000000001px"></path><path d="M214.19,179.69s1.53-3.07,1.15-5.35c0,0,7-3.33,7.77,3.94,0,0,.35-6.51-5.89-6.31s-5.71,9.3-2.34,11.84C214.88,183.81,213.25,181.61,214.19,179.69Z" style="fill:#2e353a"></path><path d="M214.82,180.42a1.59,1.59,0,0,0-1.79-1.36c-1.11.19-1.52,2.52,1.3,2.92C214.74,182,214.94,181.64,214.82,180.42Z" style="fill:#eec1bb"></path><path d="M218.76,180.93a1.89,1.89,0,0,0,2.28,1" style="fill:none;stroke:#2e353a;stroke-linecap:round;stroke-linejoin:round;stroke-width:0.7246800000000001px"></path><path d="M227.72,208.76l7.56,24.14-1,.68-5.44-12.69-1.07,13.19s-16.62.21-19.85-.11c0,0-1.78-17.68,5.79-24.66Z" style="fill:#89345B"></path><path d="M240.16,280s2.25,4.7,3.54,5.61c0,0-1.73,1-3.54-1.27-2.34-3-2.91-2.15-2.91-2.15a8.63,8.63,0,0,1,.28-1.52C237.88,279.67,240.16,280,240.16,280Z" style="fill:#2e353a"></path><path d="M220.92,279.92s.63,1.74,1.49,3.65a8.3,8.3,0,0,0,1.7,2.68,2.32,2.32,0,0,1-2.28-.45c-.8-.93-2.16-4.27-3.69-3.89a3.49,3.49,0,0,1,.34-.78A10.31,10.31,0,0,1,220.92,279.92Z" style="fill:#2e353a"></path><polygon points="227.74 206.25 228.16 209.03 212.54 210.14 212.79 207.13 227.74 206.25"></polygon><path d="M220.52,209.73c.37,0,4.3-.06,4.47-.32a16,16,0,0,0-.25-3c-.34-.33-4.42,0-4.59.18S220.15,209.75,220.52,209.73Zm.06-2.91c.14-.15,3.49-.42,3.77-.14a13,13,0,0,1,.21,2.48,22.53,22.53,0,0,1-3.68.26C220.58,209.44,220.44,207,220.58,206.82Z" style="fill:#fff"></path><path d="M221,207.6l.81-.06a.3.3,0,0,1,.31.25v0a.29.29,0,0,1-.27.34l-.81,0a.29.29,0,0,1-.31-.29A.3.3,0,0,1,221,207.6Z" style="fill:#fff"></path><path d="M212,189.2s5.25,5.35,8.08,5.46,5.78-5.53,5.78-5.53L225,188l-.44-2.44s-5.12,2.86-5.65,2.44a60.67,60.67,0,0,0-5.86-2.14l-.54,2.14Z" style="fill:#89345B"></path><polygon points="208.37 228.97 208.15 228.78 228.55 206.72 247.41 191.16 247.6 191.38 228.75 206.93 208.37 228.97" style="fill:#2e353a"></polygon><g style="opacity:0.7000000000000001;isolation:isolate"><polygon points="208.37 228.97 208.15 228.78 228.55 206.72 247.41 191.16 247.6 191.38 228.75 206.93 208.37 228.97" style="fill:#fff"></polygon></g><path d="M247.37,197.46a39.76,39.76,0,0,1-1.93,8.15A45.68,45.68,0,0,1,237,220.08a32.1,32.1,0,0,1-6.35,5.62,27.22,27.22,0,0,1-7.74,3.47,27.55,27.55,0,0,1-8.37.9,28.53,28.53,0,0,1-5.83-.89c-.34-.09-.68-.19-1-.3h0a.51.51,0,0,1,0-.17c.35.07.71.13,1.07.18a31.71,31.71,0,0,0,5.75.33,29.33,29.33,0,0,0,8-1.36,28.87,28.87,0,0,0,13.16-8.92l1.28-1.57c.42-.54.88-1,1.25-1.61.77-1.12,1.59-2.2,2.26-3.38a46,46,0,0,0,3.68-7.24l.73-1.91.63-1.94c.39-1.3.74-2.62,1-4a39,39,0,0,0,.8-5.52c0-.35,0-.7,0-1a.25.25,0,0,1,.12,0h.09c0,.36,0,.71.06,1.07A33.55,33.55,0,0,1,247.37,197.46Z" style="fill:#2e353a"></path><path d="M248.06,191.27a.56.56,0,0,1-.41.53.34.34,0,0,1-.15,0,.47.47,0,0,1-.17,0,.54.54,0,0,1-.38-.52.53.53,0,0,1,.43-.53.25.25,0,0,1,.12,0h.09A.54.54,0,0,1,248.06,191.27Z" style="fill:#2e353a"></path><path d="M208.81,228.87h0a.62.62,0,0,1-.09.3.56.56,0,0,1-.46.25.55.55,0,0,1-.55-.55h0a.51.51,0,0,1,0-.17.55.55,0,0,1,1.07.17Z" style="fill:#2e353a"></path><path d="M209.73,189.76c2.47-2.19,4.46,9.6,5.13,11.52s11.06,3.89,11.06,3.89l0,2.37s-11.51-2.66-12.79-3.51S208.09,191.21,209.73,189.76Z" style="fill:#eec1bb"></path><polygon points="228.33 205.43 228.66 203.38 227.19 200.34 227.03 203.57 224.59 202.35 226.09 204.97 228.33 205.43" style="fill:#2e353a"></polygon><path d="M242.9,232.63a.28.28,0,0,1-.24-.15l-15.88-29a.3.3,0,0,1,.52-.28l15.87,29a.28.28,0,0,1-.12.39A.26.26,0,0,1,242.9,232.63Z" style="fill:#2e353a"></path><g style="opacity:0.4;isolation:isolate"><path d="M242.9,232.63a.28.28,0,0,1-.24-.15l-15.88-29a.3.3,0,0,1,.52-.28l15.87,29a.28.28,0,0,1-.12.39A.26.26,0,0,1,242.9,232.63Z" style="fill:#fff"></path></g><polygon points="242.62 231.2 244.2 232.05 244.79 235.44 242.5 233.8 242.19 231.63 242.62 231.2" style="fill:#2e353a"></polygon><path d="M222.56,207.25l.28-3.5,3,1.12a1.63,1.63,0,0,1,1.14-.24,13.32,13.32,0,0,1,3.32,1.62c.27.39-.38,3.52-.77,3.63a12.08,12.08,0,0,1-3.35-1.28,2.6,2.6,0,0,1-.5-.73Z" style="fill:#89345B"></path></g><g id="freepik--player-1--inject-129"><rect x="137.3" y="134.26" width="28.62" height="8.25" rx="2.11" style="fill:#89345B"></rect><polygon points="147.92 143.06 151.61 146.76 155.31 143.06 147.92 143.06" style="fill:#89345B"></polygon><path d="M143.74,137.82c0,.72-.52,1.16-1.38,1.16h-.82v1h-.47v-3.31h1.29C143.22,136.67,143.74,137.11,143.74,137.82Zm-.47,0c0-.47-.32-.74-.92-.74h-.81v1.49h.81C143,138.57,143.27,138.3,143.27,137.82Z" style="fill:#fff"></path><path d="M144.44,136.67h.47v2.9h1.79V140h-2.26Z" style="fill:#fff"></path><path d="M149.37,139.15h-1.76l-.37.83h-.48l1.5-3.31h.46l1.51,3.31h-.5Zm-.17-.38-.71-1.62-.72,1.62Z" style="fill:#fff"></path><path d="M151.79,138.84V140h-.47v-1.15L150,136.67h.5l1.06,1.75,1.06-1.75h.47Z" style="fill:#fff"></path><path d="M155.93,139.57V140h-2.41v-3.31h2.34v.41H154v1h1.66v.4H154v1.07Z" style="fill:#fff"></path><path d="M158.9,140l-.71-1h-1v1h-.47v-3.31H158c.86,0,1.38.44,1.38,1.15a1.05,1.05,0,0,1-.72,1.05l.78,1.11Zm0-2.16c0-.47-.32-.74-.92-.74h-.81v1.49H158C158.57,138.57,158.89,138.3,158.89,137.82Z" style="fill:#fff"></path><path d="M162.16,136.67V140h-.47v-2.9h-.75v-.41Z" style="fill:#fff"></path><rect x="117.19" y="149.18" width="68.85" height="146.66" rx="4.48" style="fill:#89345B"></rect><rect x="117.19" y="149.18" width="68.85" height="146.66" rx="4.48" style="fill:#fff;opacity:0.5;isolation:isolate"></rect><path d="M181.56,152.18a1.47,1.47,0,0,1,1.48,1.47V291.36a1.48,1.48,0,0,1-1.48,1.48h-59.9a1.47,1.47,0,0,1-1.47-1.48V153.65a1.47,1.47,0,0,1,1.47-1.47h59.9m0-3h-59.9a4.47,4.47,0,0,0-4.47,4.47V291.36a4.48,4.48,0,0,0,4.47,4.48h59.9a4.48,4.48,0,0,0,4.48-4.48V153.65a4.47,4.47,0,0,0-4.48-4.47Z" style="fill:#89345B"></path><g id="freepik--group--inject-129"><path d="M160.09,178.07c2.87.07,8.88,3.53,10,3.36s2.54-9.63,2.54-9.63l3.12.16s-.92,10.57-3,12.77-12.69-.49-12.69-.49Z" style="fill:#89345B"></path><path d="M171.73,175l4.05,1v-4a2.91,2.91,0,0,0,.66-1.61c-.08-.68-.16-4.08-.66-4.61s-3.65-.05-4,.36.07,3.77,0,4.25.84,1.45.84,1.45Z" style="fill:#263238"></path><path d="M171.73,175l4.05,1v-4a2.91,2.91,0,0,0,.66-1.61c-.08-.68-.16-4.08-.66-4.61s-3.65-.05-4,.36.07,3.77,0,4.25.84,1.45.84,1.45Z" style="fill:#fff;opacity:0.30000000000000004;isolation:isolate"></path><polygon points="163.6 170.11 130.32 177.54 123.41 184.1 132.61 185.79 165.14 174.27 163.6 170.11" style="fill:#89345B"></polygon><polygon points="163.6 170.11 130.32 177.54 123.41 184.1 132.61 185.79 165.14 174.27 163.6 170.11" style="fill:#fff;opacity:0.7000000000000001;isolation:isolate"></polygon><polygon points="164.33 172.09 134.54 180.79 132.61 185.79 165.14 174.27 164.33 172.09" style="opacity:0.2;isolation:isolate"></polygon><polygon points="134.54 180.79 164.33 172.09 163.6 170.11 130.32 177.54 134.54 180.79" style="fill:#fff;opacity:0.4;isolation:isolate"></polygon><polygon points="176.46 166.84 163.93 170.27 165.14 174.27 177.44 168.47 176.46 166.84" style="fill:#263238"></polygon><path d="M178.19,165.17a2,2,0,1,0,2.19,1.83A2,2,0,0,0,178.19,165.17Zm.26,2.84a.83.83,0,1,1,.75-.9A.83.83,0,0,1,178.45,168Z" style="fill:#89345B"></path><polygon points="162.63 165.26 165.77 171 167.18 178.91 163.25 172.17 162.63 165.26" style="fill:#89345B"></polygon><path d="M140.18,178.07s-9.07,20.92-10.36,94c0,0,2.71-2.89,5-1.51s6.82,4.82,9.5,2.23,9.84-3.12,10.89-.72,8,.49,9.1-1.12,8.4-2.15,9.77,1.84c0,0-8.56-87.2-15.11-94.71C159,178.1,146.06,180.78,140.18,178.07Z" style="fill:#263238"></path><path d="M140.18,178.07s-9.07,20.92-10.36,94c0,0,2.71-2.89,5-1.51s6.82,4.82,9.5,2.23,9.84-3.12,10.89-.72,8,.49,9.1-1.12,8.4-2.15,9.77,1.84c0,0-8.56-87.2-15.11-94.71C159,178.1,146.06,180.78,140.18,178.07Z" style="opacity:0.2;isolation:isolate"></path><path d="M140.18,178.07c-3.68-1.8-11.3,12.31-10.26,15.14s9.87,8.09,9.87,8.09l1.22-2.64s-5.66-5-6.58-6.84,4.39-7.37,7.27-7.58C141.7,184.24,141.93,178.93,140.18,178.07Z" style="fill:#89345B"></path><path d="M148.79,266.58c2-16.48,4.7-39.35,5.1-44.41,3.36,9,4.51,29.35,4.88,44.28a1.38,1.38,0,0,0,1.38,1.34h5.11a1.38,1.38,0,0,0,1.38-1.34c.76-26.75-3.24-54.66-4.7-62.64H143.09c0,2.47-.37,28.87-1,40.92-.38,7.46-.76,15.08-1.08,21.62a1.38,1.38,0,0,0,1.38,1.44h5A1.38,1.38,0,0,0,148.79,266.58Z" style="fill:#89345B"></path><path d="M153.89,222.18a50.08,50.08,0,0,1,2.11,8.15,51.07,51.07,0,0,0-1.58-14.86Z" style="opacity:0.2;isolation:isolate"></path><path d="M140.18,178.07c.14,1.14.29,2.44.45,3.85.11.89.22,1.84.33,2.82.19,1.52.37,3.15.57,4.84l.15,1.33c.47,4.16,1,8.66,1.45,13.12h19s1.45-13.63-2-26Z" style="fill:#89345B"></path><path d="M147.09,179.34c1.7,1.41,5.66.68,5.66.68s1.51-1,.95-1.75c-1.48-.18-1.27-.62-1.6-1.48a4.36,4.36,0,0,1-.22-1.67c0-.31,0-.63.08-.94l-5.09-3.44C147.62,173.13,148.61,177.52,147.09,179.34Z" style="fill:#ebb376"></path><path d="M148.11,173a4.2,4.2,0,0,0,4,3.78,4.36,4.36,0,0,1-.22-1.67Z" style="opacity:0.2;isolation:isolate"></path><path d="M153.14,162.12s2.09,4.33.21,6.82-4.47-6-4.47-6Z" style="fill:#263238"></path><path d="M147.46,174.7a4.31,4.31,0,0,0,5.22.15,4.81,4.81,0,0,0,2-2.94,4.5,4.5,0,0,0,.08-.51c.34-3.14-.77-8.11-4.27-9a4.67,4.67,0,0,0-5.73,3.29,4.82,4.82,0,0,0-.07,2.17C145.3,171.19,145.52,173.19,147.46,174.7Z" style="fill:#ebb376"></path><path d="M149.93,168.11c0,.28.21.48.39.46s.3-.27.27-.54-.22-.48-.4-.46S149.9,167.84,149.93,168.11Z" style="fill:#263238"></path><path d="M153.05,167.71c0,.28.21.48.39.46s.3-.27.26-.55-.21-.48-.39-.45S153,167.45,153.05,167.71Z" style="fill:#263238"></path><path d="M152.08,168a9.86,9.86,0,0,0,1.62,2.19,1.61,1.61,0,0,1-1.29.41Z" style="fill:#d58745"></path><path d="M154,166a.19.19,0,0,1-.16.06,1.32,1.32,0,0,0-1.14.32.16.16,0,0,1-.24-.22h0a1.58,1.58,0,0,1,1.42-.42.16.16,0,0,1,.14.18h0Z" style="fill:#263238"></path><path d="M149.05,166.67a.16.16,0,0,1-.08-.06.15.15,0,0,1,.07-.21h0a1.6,1.6,0,0,1,1.49,0,.17.17,0,0,1,.05.23h0a.16.16,0,0,1-.22,0h0a1.31,1.31,0,0,0-1.19,0A.16.16,0,0,1,149.05,166.67Z" style="fill:#263238"></path><path d="M146.6,163.28l.41.59c-1,.56-.6,1.81-.27,2.35a4.11,4.11,0,0,1-.48,4.17s-.13-.54-.56-.33.2,3,1.32,4.19a8.92,8.92,0,0,1-2.84-3.8c-1.19-2.6-1.69-4.86-1.31-6Z" style="fill:#263238"></path><path d="M143.54,170.8a3.26,3.26,0,0,0,2.06,1.39c1.12.22,1.59-.8,1.21-1.81s-1.35-2.12-2.43-1.88A1.46,1.46,0,0,0,143.54,170.8Z" style="fill:#ebb376"></path><path d="M151.94,172.19a11,11,0,0,0-.63,1.34l-.25-.06c-1.16-.25-1.61-.75-1.76-1.23a1.49,1.49,0,0,1,0-.72,1.55,1.55,0,0,1,.12-.39,5.45,5.45,0,0,0,2.16,1Z" style="fill:#263238"></path><path d="M151.55,172.09l-.19.39a3.48,3.48,0,0,1-2.09-1,1.55,1.55,0,0,1,.12-.39A5.45,5.45,0,0,0,151.55,172.09Z" style="fill:#fff"></path><path d="M151.06,173.47c-1.16-.25-1.61-.75-1.76-1.23a3.79,3.79,0,0,1,1.23.54A1.41,1.41,0,0,1,151.06,173.47Z" style="fill:#de5753"></path><path d="M143.38,168.47s-2.2-2.46-2.37-4.83l1.19.35L141,161.16l3.92.17-1.67-1.62s3.06-1.15,5.26.41l-.81-1.27s5.2.09,6.11,5.2l-2.31.76-5.24-.42Z" style="fill:#263238"></path><path d="M145.1,178.73s4,2.21,11,0l7.1,7.41s1.4,10-.45,13.4H142.64a19.59,19.59,0,0,1-2.47-11.1S143.26,186.14,145.1,178.73Z" style="fill:#89345B"></path><path d="M157.3,177.56s2.77-2.46,5.66-1.23a8,8,0,0,1,3.77,2.75s-2,3.29-4.34,3S157.3,177.56,157.3,177.56Z" style="fill:#89345B"></path><path d="M144.57,177.37s-5.52-3-9.57,2.84c0,0,2.51,3,5.18,2.28S144.57,177.37,144.57,177.37Z" style="fill:#89345B"></path><path d="M145.1,178.73s4,2.21,11,0l7.1,7.41s1.4,10-.45,13.4H142.64a19.59,19.59,0,0,1-2.47-11.1S143.26,186.14,145.1,178.73Z" style="fill:#fff;opacity:0.7000000000000001;isolation:isolate"></path><path d="M157.3,177.56s2.77-2.46,5.66-1.23a8,8,0,0,1,3.77,2.75s-2,3.29-4.34,3S157.3,177.56,157.3,177.56Z" style="fill:#fff;opacity:0.7000000000000001;isolation:isolate"></path><path d="M144.57,177.37s-5.52-3-9.57,2.84c0,0,2.51,3,5.18,2.28S144.57,177.37,144.57,177.37Z" style="fill:#fff;opacity:0.7000000000000001;isolation:isolate"></path><path d="M142.34,176.7s-2.41,3.62.79,5.42,4-4.56,4-4.56.37-1.05-1.17,0l-2.68-.67S142.87,175.62,142.34,176.7Z" style="fill:#263238"></path><path d="M158.06,176.14s2.89,3.25,0,5.47-4.59-4-4.59-4-.51-1,1.16-.17l2.56-1S157.38,175.15,158.06,176.14Z" style="fill:#263238"></path><path d="M157.88,179.12a1.05,1.05,0,1,1-1-1.05A1,1,0,0,1,157.88,179.12Z" style="fill:#89345B"></path><path d="M144.84,179.75a1,1,0,1,1-1.05-1.05A1,1,0,0,1,144.84,179.75Z" style="fill:#89345B"></path><path d="M145.38,283.74h-4.31a.32.32,0,0,0-.3.25l-.7,3.16a.52.52,0,0,0,.4.62h.12c1.39,0,2.41-.11,4.16-.11,1.08,0,4.33.12,5.82.12s1.69-1.48,1.08-1.61c-2.74-.6-4.8-1.42-5.67-2.21A.88.88,0,0,0,145.38,283.74Z" style="fill:#263238"></path><path d="M147.42,267.79A83.2,83.2,0,0,0,146,284l-5.21,0,.87-16.43Z" style="fill:#263238"></path><path d="M147.42,267.79A83.2,83.2,0,0,0,146,284l-5.21,0,.87-16.43Z" style="fill:#fff;opacity:0.30000000000000004;isolation:isolate"></path><path d="M163.67,283.63h-4.31a.32.32,0,0,0-.31.25l-.7,3.16a.54.54,0,0,0,.41.62h.11c1.4,0,2.42-.11,4.17-.11,1.08,0,4.33.11,5.82.11s1.69-1.47,1.08-1.6a14.13,14.13,0,0,1-5.67-2.21A.9.9,0,0,0,163.67,283.63Z" style="fill:#263238"></path><path d="M164.3,284.3l1.28-16.74-5.43.23s-.58,13.77-1.19,16.51Z" style="fill:#263238"></path><path d="M164.3,284.3l1.28-16.74-5.43.23s-.58,13.77-1.19,16.51Z" style="fill:#fff;opacity:0.30000000000000004;isolation:isolate"></path><path d="M141,198.66A3.5,3.5,0,0,1,142.8,201c.15,1.45-1.37,5.46-1.77,5.34a4.82,4.82,0,0,1-2.18-1.27c-.38-.62.94-3.72.94-3.72l-4-2.13,2.47-4.09Z" style="fill:#263238"></path><path d="M141,198.66A3.5,3.5,0,0,1,142.8,201c.15,1.45-1.37,5.46-1.77,5.34a4.82,4.82,0,0,1-2.18-1.27c-.38-.62.94-3.72.94-3.72l-4-2.13,2.47-4.09Z" style="fill:#fff;opacity:0.30000000000000004;isolation:isolate"></path><path d="M162.81,202.92a8.08,8.08,0,0,1,1.84,5.33,25.45,25.45,0,0,0,2.08,8l-2,1.24a19.1,19.1,0,0,1-1.08-5c0-1.83.14-6.61-1.3-8.92Z" style="fill:#89345B"></path><path d="M162.81,202.92a8.08,8.08,0,0,1,1.84,5.33,25.45,25.45,0,0,0,2.08,8l-2,1.24a19.1,19.1,0,0,1-1.08-5c0-1.83.14-6.61-1.3-8.92Z" style="fill:#fff;opacity:0.2;isolation:isolate"></path><path d="M142.75,201.86l19.64-.23.42,1.64s-8.93,12.4-21.1,14.58Z" style="fill:#89345B"></path><path d="M142.75,201.86l19.64-.23.42,1.64s-8.93,12.4-21.1,14.58Z" style="fill:#fff;opacity:0.30000000000000004;isolation:isolate"></path><path d="M161.11,201.65a3.07,3.07,0,0,1,1.7-.35c.92.1,1.17,2.56-.42,3.41a39.46,39.46,0,0,0-.06,8.15c.48,3.48-.6,4.64-.6,4.64h-3s2.47-2.64,2-4.64-.36-6.89,1-8.83C161.7,204,161.65,202.2,161.11,201.65Z" style="fill:#89345B"></path><path d="M161.11,201.65a3.07,3.07,0,0,1,1.7-.35c.92.1,1.17,2.56-.42,3.41a39.46,39.46,0,0,0-.06,8.15c.48,3.48-.6,4.64-.6,4.64h-3s2.47-2.64,2-4.64-.36-6.89,1-8.83C161.7,204,161.65,202.2,161.11,201.65Z" style="fill:#fff;opacity:0.4;isolation:isolate"></path></g></g><g id="freepik--Character--inject-129"><g id="freepik--group--inject-129"><path d="M368.76,333S363.28,343,356.63,343s-10.86-13.69-10.86-13.69l3.81-2.67s4.32,7.66,7.05,7.8,5.72-5.13,5.72-5.13Z" style="fill:#e4897b"></path><g style="clip-path:url(#freepik--clip-path--inject-129)"><path d="M366.24,336.86c2.07-2.39,2.1-3.5,2.1-3.5l-6.41-3.74a20.84,20.84,0,0,1-2.08,2.52C361.41,333.85,366.06,336.75,366.24,336.86Z" style="opacity:0.1;isolation:isolate"></path></g><path d="M377.71,323.38l-7.55,9.55-2.52,3.59-8-5.64s7.86-15.52,10.46-19l3.18,4.78Z" style="fill:#89345B"></path><path d="M377.71,323.38l-7.55,9.55A44.66,44.66,0,0,1,374,319.36Z" style="opacity:0.2;isolation:isolate"></path><path d="M432.81,366.1h-47.5c-2.64-15.09-7.06-35.3-15.25-54.2a98.25,98.25,0,0,1,13.27-4.51,181,181,0,0,1,20.09-4.21c4.68-.5,7.45-1,12.16-.74,0,0,3.46,1,5.58,7,1.11,3.08,2.37,9.15,3.71,14A286.76,286.76,0,0,1,432.81,366.1Z" style="fill:#89345B"></path><path d="M392.22,286.25c1.8,6.48,6.06,17.88,12.16,19.75,0,0-4.49,7.35-11.22,8-4.28.39-6.65-4.44-6.65-4.44,4.37-.81,2.7-4-.74-8Z" style="fill:#e4897b"></path><path d="M389.6,292.47l-3.82,9a21.86,21.86,0,0,1,2.19,3c4.29.32,7.37-6.47,6.32-9.24C393.92,294.09,390.36,293.39,389.6,292.47Z" style="opacity:0.2;isolation:isolate"></path><path d="M377.4,275.9c4.1,1.69,3.31,6.16-3.47,14.29-4.18-3.59-6.44-11.78-4.25-14.41S373.84,274.44,377.4,275.9Z" style="fill:#263238"></path><path d="M394.22,279.4c1.42,8.85,2.7,14-.7,19.42-5.11,8.22-16.78,6.65-20.83-1.6-3.62-7.41-5.34-20.64,2.42-26a12.23,12.23,0,0,1,19.11,8.2Z" style="fill:#e4897b"></path><path d="M381.72,284.72c.16.71-.09,1.37-.55,1.47s-1-.38-1.13-1.09.09-1.37.55-1.48S381.51,284,381.72,284.72Z" style="fill:#263238"></path><path d="M373.65,286.54c.16.71-.09,1.37-.56,1.47s-1-.37-1.13-1.09.09-1.38.55-1.48S373.49,285.83,373.65,286.54Z" style="fill:#263238"></path><path d="M376.36,286.28a25.8,25.8,0,0,1-2,6.84c1.54.89,3.54-.13,3.54-.13Z" style="fill:#de5753"></path><path d="M383.35,281.67a.41.41,0,0,0,.26-.11.44.44,0,0,0-.05-.61,4.23,4.23,0,0,0-3.78-1,.43.43,0,0,0-.3.51v0a.45.45,0,0,0,.53.29h0a3.38,3.38,0,0,1,3,.79A.44.44,0,0,0,383.35,281.67Z" style="fill:#263238"></path><path d="M369.36,284.64a.43.43,0,0,0,.33-.32,3.41,3.41,0,0,1,1.92-2.41.44.44,0,0,0,.26-.55.42.42,0,0,0-.54-.26,4.24,4.24,0,0,0-2.47,3,.42.42,0,0,0,.31.51h.19Z" style="fill:#263238"></path><path d="M389,272.44c-3.76,2.32-2.28,6.6,5.72,13.54,3.55-4.21,4.48-12.67,1.89-14.9S392.29,270.43,389,272.44Z" style="fill:#263238"></path><path d="M399.94,285.44a8.47,8.47,0,0,1-2.84,5.86c-2.24,2-4.65.27-5.1-2.52-.41-2.52.28-6.58,3.05-7.46S400.09,282.68,399.94,285.44Z" style="fill:#e4897b"></path><path d="M379.34,294.92A22.06,22.06,0,0,1,381,297.7l.54-.16c2.46-.77,3.34-1.93,3.58-3A3.38,3.38,0,0,0,385,293a3,3,0,0,0-.34-.83,12.08,12.08,0,0,1-4.5,2.49C379.67,294.83,379.34,294.92,379.34,294.92Z" style="fill:#263238"></path><path d="M380.18,294.64l.49.81c2.31-.72,3.84-1.55,4.35-2.47a3,3,0,0,0-.34-.83A12.08,12.08,0,0,1,380.18,294.64Z" style="fill:#fff"></path><path d="M381.5,297.54c2.46-.77,3.34-1.93,3.58-3a8.05,8.05,0,0,0-2.56,1.39A3.07,3.07,0,0,0,381.5,297.54Z" style="fill:#a24e3f"></path><path d="M388.69,274.27s-11.27-3.43-16.78,4.18a8.86,8.86,0,0,1,4.19-4.95s-5.2.62-6,4.49l-.38-2.21-3,1.17s.36-7.22,5.92-8.36a5.34,5.34,0,0,0-3.83,1.41s1.86-7.05,11.24-7.59,15.21,6.66,15.08,9.38S388.69,274.27,388.69,274.27Z" style="fill:#263238"></path><path d="M344.55,316.76l2.18,9.73a2.79,2.79,0,0,0,2.62,2.06h19.49a1.64,1.64,0,0,0,1.7-2.06l-2.18-9.73a2.8,2.8,0,0,0-2.62-2.05H346.25A1.63,1.63,0,0,0,344.55,316.76Z" style="fill:#263238"></path><path d="M360.12,314.71l3.1,13.84h5.62a1.64,1.64,0,0,0,1.7-2.06l-2.18-9.73a2.8,2.8,0,0,0-2.62-2.05Z" style="fill:#fff;opacity:0.6000000000000001;isolation:isolate"></path><path d="M344.55,316.76l2.18,9.73a2.79,2.79,0,0,0,2.62,2.06h3.34l-3.1-13.84h-3.34A1.63,1.63,0,0,0,344.55,316.76Z" style="fill:#fff;opacity:0.6000000000000001;isolation:isolate"></path><path d="M344.55,316.76l2.18,9.73a2.79,2.79,0,0,0,2.62,2.06H367a1.63,1.63,0,0,0,1.7-2.06l-2.18-9.73a2.78,2.78,0,0,0-2.62-2.05H346.25A1.63,1.63,0,0,0,344.55,316.76Z" style="fill:#263238;opacity:0.2;isolation:isolate"></path><path d="M363.27,324.76c.94-1,6.38-4.55,7.51-3.88s5.09,7.44,6.35,8.17a50.57,50.57,0,0,1-2.51,4.64,16.11,16.11,0,0,1-3.42-.2C370.22,333.2,362.33,325.76,363.27,324.76Z" style="fill:#e4897b"></path><path d="M348.08,325.23c-.15-.35-2.8-6.88-3.58-6.75s-3.76,3.27-3.48,4.22,3,7.87,4.07,7.83,3.51,0,3.51,0A12.9,12.9,0,0,0,348.08,325.23Z" style="fill:#e4897b"></path><path d="M381.15,381.29s-72.27-10.38-76.09,5.48c-4,16.77,54,28.08,88.68,29.26S438.38,409,432.8,366.1H385.32Z" style="fill:#263238"></path><path d="M381.15,381.29s-72.27-10.38-76.09,5.48c-4,16.77,54,28.08,88.68,29.26S438.38,409,432.8,366.1H385.32Z" style="opacity:0.2;isolation:isolate"></path><path d="M313,419.61A3.07,3.07,0,0,1,311.9,418a1.17,1.17,0,0,1,.41-1.12.74.74,0,0,1,.69-.2c1.16.35,2.31,3.68,2.42,4.07a.17.17,0,0,1-.06.22.23.23,0,0,1-.25,0A12.68,12.68,0,0,1,313,419.61Zm.19-2.3a.87.87,0,0,0-.26-.16.27.27,0,0,0-.28.08.77.77,0,0,0-.29.77,5,5,0,0,0,2.47,2.38A9.68,9.68,0,0,0,313.17,417.31Z" style="fill:#89345B"></path><path d="M315.06,421l0-.1c-.41-1-.51-3.73.32-4.32a.75.75,0,0,1,.93.08,1.3,1.3,0,0,1,.55.84c.27,1.36-1.34,3.39-1.44,3.48a.2.2,0,0,1-.22.06A.21.21,0,0,1,315.06,421Zm1-3.92L316,417c-.25-.18-.35-.1-.4-.07-.49.34-.58,2.24-.31,3.39.43-.62,1.23-1.91,1.07-2.78a.88.88,0,0,0-.28-.48Z" style="fill:#89345B"></path><polygon points="340.91 414.36 325.76 414.37 318.49 414.38 317.62 406.72 324.35 405.82 340.78 403.63 340.91 414.36" style="fill:#e4897b"></polygon><path d="M319.26,405.76l1.85,8.74a.89.89,0,0,1-.71,1.05l-4.35.78s-5.79,1.47-7.41.44c-4.75-3-9.32-22.26-7.39-23.68.71-.52,1.94.27,2.55.89,1.94,2,6.1,7.54,7.74,9.18,1.92,1.92,5.33,2,6.83,1.9A.87.87,0,0,1,319.26,405.76Z" style="fill:#263238"></path><polygon points="340.91 414.36 325.76 414.37 324.35 405.82 340.78 403.63 340.91 414.36" style="opacity:0.2;isolation:isolate"></polygon><path d="M319.26,405.76l1.85,8.74a.89.89,0,0,1-.71,1.05l-4.35.78s-5.79,1.47-7.41.44c-4.75-3-9.32-22.26-7.39-23.68.71-.52,1.94.27,2.55.89,1.94,2,6.1,7.54,7.74,9.18,1.92,1.92,5.33,2,6.83,1.9A.87.87,0,0,1,319.26,405.76Z" style="fill:#fff;opacity:0.2;isolation:isolate"></path><path d="M387.33,420.15a3.07,3.07,0,0,1,.23,1.89,1.19,1.19,0,0,1-.88.8.73.73,0,0,1-.71-.14c-.87-.85-.33-4.34-.25-4.74a.18.18,0,0,1,.15-.16.23.23,0,0,1,.23.11A11.89,11.89,0,0,1,387.33,420.15Zm-1.24,1.94a.92.92,0,0,0,.16.27.27.27,0,0,0,.28.05.74.74,0,0,0,.62-.54,4.91,4.91,0,0,0-1.08-3.25A9.64,9.64,0,0,0,386.09,422.09Z" style="fill:#89345B"></path><polygon points="363.04 400.84 377.41 405.62 384.31 407.92 382.71 415.45 376.05 414.18 359.77 411.07 363.04 400.84" style="fill:#e4897b"></polygon><path d="M380.85,415.85l1-8.87a.88.88,0,0,1,1-.78l4.38.64s5.95.43,7.16,1.93c3.55,4.37,1.81,24.05-.48,24.79-.83.27-1.75-.86-2.13-1.65-1.21-2.51-3.4-9.08-4.44-11.16-1.22-2.42-4.43-3.56-5.88-4A.87.87,0,0,1,380.85,415.85Z" style="fill:#263238"></path><path d="M386.15,417.93l0,.11c-.12,1.09-1.29,3.54-2.3,3.67a.75.75,0,0,1-.78-.51,1.29,1.29,0,0,1-.1-1c.4-1.33,2.76-2.37,2.9-2.4a.19.19,0,0,1,.22,0A.24.24,0,0,1,386.15,417.93Zm-2.73,3,0,.09c.14.27.26.25.33.25.59-.08,1.55-1.72,1.85-2.86-.67.34-2,1.12-2.24,2a.83.83,0,0,0,0,.56Z" style="fill:#89345B"></path><polygon points="363.04 400.84 377.41 405.62 376.05 414.18 359.77 411.07 363.04 400.84" style="opacity:0.2;isolation:isolate"></polygon><polygon points="373.55 415.51 369.45 415.9 371.9 401.72 376.61 404.2 373.55 415.51" style="fill:#89345B"></polygon><polygon points="373.55 415.51 369.45 415.9 371.9 401.72 376.61 404.2 373.55 415.51" style="fill:#fff;opacity:0.6000000000000001;isolation:isolate"></polygon><path d="M380.85,415.85l1-8.87a.88.88,0,0,1,1-.78l4.38.64s5.95.43,7.16,1.93c3.55,4.37,1.81,24.05-.48,24.79-.83.27-1.75-.86-2.13-1.65-1.21-2.51-3.4-9.08-4.44-11.16-1.22-2.42-4.43-3.56-5.88-4A.87.87,0,0,1,380.85,415.85Z" style="fill:#fff;opacity:0.2;isolation:isolate"></path><path d="M327.14,404.71S394.38,378.6,415,383s20.68,15.14,10.25,25.19-26,6.17-26,6.17,12.26-7.34,11.4-11.88-8.64,5.84-8.64,5.84-40.64,9.93-74.19,7.32Z" style="fill:#263238"></path><polygon points="326.32 403.62 330.1 401.89 332.27 416.04 327.02 415.18 326.32 403.62" style="fill:#89345B"></polygon><polygon points="326.32 403.62 330.1 401.89 332.27 416.04 327.02 415.18 326.32 403.62" style="fill:#fff;opacity:0.6000000000000001;isolation:isolate"></polygon><path d="M396.51,338.93l-.14,4.61,2.73-.28.12,1.72-2.91.3-.13,4.27-1.39.15.13-4.28-3.71.38-.13,4.28-1.4.14.13-4.28-2.71.28L387,344.5l2.89-.29.16-4.62-2.75.28-.12-1.71,2.92-.3.13-4.28,1.4-.14-.13,4.28,3.69-.38.13-4.28,1.4-.14-.13,4.28,2.71-.28.12,1.71Zm-1.39.14-3.69.38-.17,4.61,3.71-.38Z" style="fill:#fff"></path><path d="M404.71,332.1l1.18,16.46-1.95.2-1-14.42-3.11.32-.15-2.05Z" style="fill:#fff"></path><path d="M415.16,330.4,401,324.13c2-5.13,4.65-11.27,7.32-15.21a60.53,60.53,0,0,1,13.08,1.32C423.56,317.32,415.16,330.4,415.16,330.4Z" style="opacity:0.2;isolation:isolate"></path><path d="M406,321.64s-6.13,10.68-8.92,12.28-21.86-6.08-21.86-6.08l-3.48,4.69s20.81,11.71,26.85,9.85,14.6-14.44,14.6-14.44Z" style="fill:#e4897b"></path><g style="clip-path:url(#freepik--clip-path-2--inject-129)"><path d="M415,330.6l-13.84-6c1.67-5.26,2.76-10,5.14-14.14a84,84,0,0,1,14.17.71C422.44,316.49,415,330.6,415,330.6Z" style="opacity:0.1;isolation:isolate"></path></g><path d="M417.4,302.91c11,5.14-3,26.17-3,26.17l-13.13-5.72S408.55,298.77,417.4,302.91Z" style="fill:#89345B"></path></g></g></svg>